<?xml version="1.0" encoding="UTF-8"?>
<svg id="newBookCoversEditableText" xmlns="http://www.w3.org/2000/svg" xmlns:xlink="http://www.w3.org/1999/xlink" viewBox="0 0 148.03 193.76">
  <defs>
    <style>
      .cls-1 {
        fill: none;
      }

      .cls-1, .cls-2, .cls-3, .cls-4, .cls-5, .cls-6, .cls-7, .cls-8, .cls-9, .cls-10 {
        stroke-width: 0px;
      }

      .cls-11 {
        stroke: #05004d;
        stroke-linecap: round;
        stroke-linejoin: round;
        stroke-width: .5px;
      }

      .cls-11, .cls-10 {
        fill: #05004d;
      }

      .cls-2 {
        fill: url(#New_Pattern_4);
        opacity: .2;
      }

      .cls-3 {
        fill: #f9ffb1;
      }

      .cls-4 {
        fill: #6364ff;
      }

      .cls-5 {
        fill: #3e4347;
      }

      .cls-6 {
        fill: #b6b9c2;
      }

      .cls-7 {
        fill: #8ea2ff;
      }

      .cls-8 {
        fill: #fff;
      }

      .cls-9 {
        fill: #f5f6f3;
      }
    </style>
    <pattern id="New_Pattern_4" data-name="New Pattern 4" x="0" y="0" width="27.79" height="27.42" patternTransform="translate(-662.51 9802.99) rotate(20.14) scale(1.38)" patternUnits="userSpaceOnUse" viewBox="0 0 27.79 27.42">
      <g>
        <rect class="cls-1" x="0" width="27.79" height="27.42"/>
        <g>
          <path class="cls-1" d="M13.1,28.42c-.05.05-.09.1-.13.14-.21.18-.45.26-.73.27-.3,0-.56-.08-.79-.27-.18-.15-.3-.34-.38-.57-.1-.28-.11-.57-.06-.86.03-.21.1-.41.22-.58.21-.31.49-.48.86-.51.19-.02.37,0,.55.06.19.06.34.17.46.32,0,.01.01.03.03.03.02-.02,0-.04,0-.06,0-.08,0-.15,0-.23,0-.03.01-.04.04-.04.17,0,.34,0,.51,0,.03,0,.04.01.04.04,0,.01,0,.03,0,.04,0,1.13,0,2.27,0,3.4,0,0,0,.01,0,.02,0,.06,0,.06-.06.06-.17,0-.33,0-.5,0-.06,0-.06,0-.06-.06,0-.38,0-.75,0-1.13,0-.02,0-.03,0-.06ZM11.62,27.43c0,.16.03.32.09.47.11.25.3.4.57.43.33.04.64-.15.76-.45.12-.29.12-.58,0-.87-.11-.28-.32-.43-.62-.46-.3-.02-.54.1-.69.37-.09.16-.12.34-.12.52Z"/>
          <path class="cls-1" d="M24.49,27.6c0,.09.03.18.06.26.08.21.23.36.44.43.23.08.46.07.68-.07.07-.04.12-.1.16-.17.02-.04.05-.05.09-.05.17,0,.34,0,.5,0,.02,0,.04,0,.06,0,0,.03,0,.05-.02.07-.17.39-.46.63-.87.72-.27.06-.55.05-.82-.03-.3-.1-.54-.28-.71-.56-.17-.29-.22-.61-.19-.95.02-.22.08-.42.19-.61.13-.22.31-.39.54-.5.32-.15.65-.18.99-.09.34.08.6.29.76.6.14.25.19.53.18.82,0,.04.01.08-.01.11-.02.02-.07,0-.1,0-.62,0-1.24,0-1.87,0-.02,0-.04,0-.07,0ZM25.22,27.15h0c.22,0,.43,0,.65,0,.05,0,.06,0,.05-.06-.02-.08-.04-.16-.08-.24-.07-.13-.17-.23-.31-.29-.12-.05-.25-.07-.38-.05-.35.03-.56.27-.61.58-.01.06,0,.06.05.06.21,0,.43,0,.64,0Z"/>
          <path class="cls-1" d="M8.63,27.6c0,.1.03.19.07.28.09.2.23.35.43.42.24.08.47.06.68-.07.07-.04.12-.1.16-.17.02-.03.04-.04.08-.04.17,0,.34,0,.52,0,.02,0,.03,0,.05,0-.01.07-.05.13-.08.19-.18.32-.46.52-.81.6-.27.06-.54.05-.81-.03-.28-.08-.5-.24-.66-.48-.19-.28-.26-.6-.25-.93,0-.22.05-.42.15-.62.13-.27.33-.47.6-.59.37-.17.75-.18,1.14-.03.26.1.45.28.58.52.16.29.21.6.19.92,0,.03-.02.04-.04.04-.09,0-.17,0-.26,0-.56,0-1.12,0-1.68,0-.02,0-.04,0-.06,0ZM10.06,27.15c-.02-.2-.1-.36-.25-.49-.17-.14-.36-.16-.57-.14-.1.01-.19.04-.27.09-.19.12-.28.3-.31.51,0,.02,0,.03.03.03.01,0,.02,0,.04,0,.42,0,.85,0,1.27,0,.02,0,.04,0,.07,0Z"/>
          <path class="cls-1" d="M16.04,28.42s-.02.02-.03.03c-.14.2-.33.32-.57.37-.2.04-.41.03-.6-.04-.23-.08-.38-.24-.47-.46-.06-.15-.09-.3-.1-.47,0-.06,0-.12,0-.19,0-.49,0-.99,0-1.48,0-.07,0-.07.07-.07.16,0,.32,0,.48,0,.08,0,.07,0,.07.07,0,.44,0,.88,0,1.32,0,.15,0,.29.04.43.03.12.08.22.18.3.03.03.07.05.11.06.2.06.39.06.56-.07.12-.08.17-.21.2-.34.03-.13.04-.26.04-.39,0-.43,0-.86,0-1.29,0-.1-.01-.09.08-.09.16,0,.31,0,.47,0,.08,0,.07,0,.07.07,0,.14,0,.28,0,.42,0,.68,0,1.36,0,2.04,0,.03,0,.06,0,.09,0,.03,0,.04-.04.04,0,0-.02,0-.02,0-.16,0-.31,0-.47,0-.06,0-.06,0-.06-.06,0-.08,0-.16,0-.24,0-.02,0-.03,0-.05Z"/>
          <path class="cls-1" d="M21.63,27.93c.08,0,.16,0,.24,0,.04,0,.05.01.06.04.03.09.08.17.14.23.09.08.19.13.31.14.15.02.3,0,.43-.07.09-.05.15-.13.15-.24,0-.08-.03-.14-.1-.19-.07-.05-.15-.07-.23-.1-.16-.05-.33-.09-.49-.14-.13-.04-.25-.08-.37-.15-.28-.16-.39-.41-.35-.73.03-.26.19-.45.41-.57.25-.13.51-.16.78-.13.18.02.35.07.5.17.21.14.33.33.37.57,0,.01,0,.03,0,.04,0,.02,0,.03-.02.03,0,0-.02,0-.02,0-.15,0-.3,0-.45,0-.03,0-.05,0-.06-.04-.07-.17-.2-.27-.39-.29-.13-.02-.25-.01-.37.04-.1.05-.16.12-.16.23,0,.09.03.16.11.2.1.06.2.08.31.11.18.05.36.09.53.15.11.04.22.09.32.16.13.09.21.22.24.38.05.28-.01.53-.21.74-.13.14-.3.22-.49.26-.28.06-.55.06-.82-.03-.26-.08-.45-.24-.57-.48-.05-.1-.08-.2-.1-.31-.01-.06-.01-.06.05-.06.08,0,.16,0,.24,0Z"/>
          <path class="cls-1" d="M18.71,27.41c0-.25,0-.51,0-.76,0-.01,0-.02,0-.04,0-.03-.01-.04-.04-.04-.08,0-.17,0-.25,0-.02,0-.04,0-.06,0-.05,0-.05,0-.05-.05,0-.12,0-.24,0-.36,0-.03.01-.04.04-.04.1,0,.21,0,.31,0,.05,0,.05,0,.05-.05,0-.2,0-.39,0-.59,0-.01,0-.03,0-.04,0-.02,0-.04.03-.03,0,0,.01,0,.02,0,.17,0,.35,0,.52,0,.05,0,.05,0,.05.05,0,.2,0,.41,0,.61,0,.06,0,.06.06.06.13,0,.26,0,.39,0,.05,0,.05,0,.05.05,0,.12,0,.24,0,.36,0,.05,0,.05-.05.05-.13,0-.26,0-.39,0-.06,0-.06,0-.06.06,0,.46,0,.92,0,1.39,0,.05,0,.11.02.16.03.08.08.14.17.16.07.02.14.02.22.01.04,0,.04,0,.04.04,0,.12,0,.25,0,.37,0,.03,0,.04-.04.05-.21.02-.43.02-.63-.05-.24-.08-.36-.25-.39-.49,0-.05,0-.1,0-.16,0-.23,0-.46,0-.7Z"/>
          <path class="cls-1" d="M20.26,27.44c0-.42,0-.84,0-1.25,0-.07,0-.07.07-.07.16,0,.32,0,.48,0,.08,0,.07,0,.07.07,0,.69,0,1.38,0,2.08,0,.15,0,.3,0,.45,0,.05,0,.06-.05.06-.17,0-.34,0-.51,0-.06,0-.06,0-.06-.06,0-.36,0-.73,0-1.09v-.17Z"/>
          <path class="cls-1" d="M17.92,27.45c0,.41,0,.82,0,1.24,0,.01,0,.03,0,.04,0,.03-.01.04-.04.04-.18,0-.36,0-.53,0-.03,0-.04-.01-.04-.04,0-.01,0-.02,0-.04v-2.49s0-.02,0-.03c0-.05,0-.05.05-.05.17,0,.35,0,.52,0,.05,0,.05,0,.05.05,0,.2,0,.41,0,.61,0,.22,0,.45,0,.67Z"/>
          <path class="cls-1" d="M17.61,25.74c-.09,0-.18,0-.27,0-.04,0-.05,0-.05-.05,0-.16,0-.32,0-.48,0-.05,0-.05.04-.05.18,0,.37,0,.55,0,.03,0,.04.01.04.04,0,.17,0,.33,0,.5,0,.03-.01.04-.04.04-.09,0-.18,0-.27,0Z"/>
          <path class="cls-1" d="M20.57,25.16c.09,0,.18,0,.27,0,.03,0,.04,0,.04.04,0,.16,0,.33,0,.49,0,.04,0,.04-.05.04-.18,0-.36,0-.55,0-.03,0-.04,0-.04-.04,0-.17,0-.33,0-.5,0-.03.01-.04.04-.04.09,0,.19,0,.28,0Z"/>
          <path class="cls-1" d="M27.36,26.47c-.24,0-.43-.19-.43-.43,0-.24.19-.43.43-.43.24,0,.42.19.42.43,0,.24-.19.42-.43.42ZM27.71,26.04c0-.19-.16-.35-.34-.34-.19,0-.34.16-.34.35,0,.19.15.35.34.34.19,0,.34-.16.34-.35Z"/>
          <path class="cls-1" d="M27.58,26.29s-.07,0-.1,0c-.02,0-.03-.02-.04-.03-.02-.04-.05-.08-.07-.12,0-.01-.02-.03-.04-.02-.02,0-.01.02-.01.04,0,.04,0,.07,0,.11,0,.02,0,.03-.03.03,0,0-.01,0-.02,0-.08,0-.07,0-.07-.07,0-.13,0-.25,0-.38,0-.04,0-.05.04-.05.06,0,.12,0,.18,0,.07,0,.12.04.14.1.02.07,0,.13-.06.17-.03.02-.03.03-.01.06.03.05.06.1.09.16ZM27.31,25.95s0,.02,0,.04c0,.01,0,.02.02.02.03,0,.07,0,.1-.01.02-.01.03-.03.02-.05,0-.02-.02-.04-.04-.04-.02,0-.03,0-.05,0-.06,0-.06,0-.06.05Z"/>
          <g>
            <path class="cls-3" d="M2.74,30.78c-.05-.03-.11-.04-.16-.07-.15-.07-.29-.16-.44-.25-.26-.15-.51-.29-.77-.44-.25-.14-.5-.27-.74-.43-.29-.19-.48-.47-.58-.8-.04-.13-.05-.26-.05-.4,0-.66,0-1.31,0-1.97,0-.44.17-.8.49-1.1.08-.08.18-.13.27-.19.36-.2.71-.41,1.07-.61.23-.13.46-.26.69-.39.14-.08.28-.12.44-.14,0,0,.02,0,.03,0,.08,0,.15,0,.23,0,.25,0,.49.07.71.19.23.13.46.26.69.4.36.2.71.4,1.06.61.26.16.45.38.57.66.09.2.12.4.12.62,0,.64,0,1.28,0,1.92,0,.42-.15.77-.45,1.07-.1.1-.22.17-.34.24-.24.14-.47.27-.71.41-.32.18-.64.37-.96.55-.32.18-.66.23-1.02.16-.05,0-.1-.03-.15-.03ZM5.78,27.41c0-.29,0-.58,0-.88,0-.11-.02-.22-.05-.32-.09-.26-.25-.46-.5-.6-.19-.11-.38-.22-.58-.33-.31-.18-.61-.35-.92-.53-.14-.08-.29-.13-.46-.15-.2-.01-.38.01-.55.1-.16.09-.32.18-.48.27-.37.21-.73.42-1.1.63-.36.21-.55.52-.55.94,0,.57,0,1.15,0,1.72,0,.07,0,.15.02.22.06.31.23.55.51.71.08.05.17.1.25.15.42.24.84.48,1.26.72.36.2.73.21,1.09.01.17-.09.33-.19.5-.28.32-.19.65-.37.97-.56.12-.07.24-.15.33-.26.17-.2.26-.43.26-.7,0-.29,0-.58,0-.87Z"/>
            <path class="cls-3" d="M3.95,27.71c-.33,0-.67,0-1,0-.09,0-.17-.03-.23-.1-.07-.09-.1-.19-.06-.29.04-.11.13-.18.25-.19.02,0,.04,0,.07,0,.45,0,.91,0,1.36,0,.08,0,.08,0,.06-.07-.09-.28-.26-.5-.5-.67-.17-.12-.36-.19-.57-.22-.28-.03-.54.02-.78.16-.29.17-.5.42-.59.75-.11.39-.04.75.19,1.08.14.21.33.36.57.45.26.1.52.12.79.04.22-.06.41-.17.57-.32.02-.02.04-.03.07-.03.21,0,.42,0,.63,0,0,0,.02,0,.02,0,.02,0,.02.01.02.02,0,.01-.01.02-.02.03-.18.31-.43.55-.75.72-.33.17-.68.24-1.05.21-.37-.03-.7-.17-.99-.4-.22-.18-.39-.39-.52-.64-.13-.26-.19-.54-.18-.84.01-.44.16-.84.45-1.18.26-.31.59-.5.98-.59.23-.06.46-.07.69-.03.45.06.82.26,1.13.6.25.27.4.58.46.94.03.18.03.36,0,.54,0,.05,0,.05-.05.05-.11,0-.23,0-.34,0-.23,0-.46,0-.69,0Z"/>
          </g>
        </g>
        <g>
          <path class="cls-1" d="M27,21.57c-.05.05-.09.1-.13.14-.21.18-.45.26-.73.27-.3,0-.56-.08-.79-.27-.18-.15-.3-.34-.38-.57-.1-.28-.11-.57-.06-.86.03-.21.1-.41.22-.58.21-.31.49-.48.86-.51.19-.02.37,0,.55.06.19.06.34.17.46.32,0,.01.01.03.03.03.02-.02,0-.04,0-.06,0-.08,0-.15,0-.23,0-.03.01-.04.04-.04.17,0,.34,0,.51,0,.03,0,.04.01.04.04,0,.01,0,.03,0,.04,0,1.13,0,2.27,0,3.4,0,0,0,.01,0,.02,0,.06,0,.06-.06.06-.17,0-.33,0-.5,0-.06,0-.06,0-.06-.06,0-.38,0-.75,0-1.13,0-.02,0-.03,0-.06ZM25.52,20.57c0,.16.03.32.09.47.11.25.3.4.57.43.33.04.64-.15.76-.45.12-.29.12-.58,0-.87-.11-.28-.32-.43-.62-.46-.3-.02-.54.1-.69.37-.09.16-.12.34-.12.52Z"/>
          <path class="cls-1" d="M22.53,20.74c0,.1.03.19.07.28.09.2.23.35.43.42.24.08.47.06.68-.07.07-.04.12-.1.16-.17.02-.03.04-.04.08-.04.17,0,.34,0,.52,0,.02,0,.03,0,.05,0-.01.07-.05.13-.08.19-.18.32-.46.52-.81.6-.27.06-.54.05-.81-.03-.28-.08-.5-.24-.66-.48-.19-.28-.26-.6-.25-.93,0-.22.05-.42.15-.62.13-.27.33-.47.6-.59.37-.17.75-.18,1.14-.03.26.1.45.28.58.52.16.29.21.6.19.92,0,.03-.02.04-.04.04-.09,0-.17,0-.26,0-.56,0-1.12,0-1.68,0-.02,0-.04,0-.06,0ZM23.95,20.29c-.02-.2-.1-.36-.25-.49-.17-.14-.36-.16-.57-.14-.1.01-.19.04-.27.09-.19.12-.28.3-.31.51,0,.02,0,.03.03.03.01,0,.02,0,.04,0,.42,0,.85,0,1.27,0,.02,0,.04,0,.07,0Z"/>
          <g>
            <path class="cls-3" d="M16.64,23.93c-.05-.03-.11-.04-.16-.07-.15-.07-.29-.16-.44-.25-.26-.15-.51-.29-.77-.44-.25-.14-.5-.27-.74-.43-.29-.19-.48-.47-.58-.8-.04-.13-.05-.26-.05-.4,0-.66,0-1.31,0-1.97,0-.44.17-.8.49-1.1.08-.08.18-.13.27-.19.36-.2.71-.41,1.07-.61.23-.13.46-.26.69-.39.14-.08.28-.12.44-.14,0,0,.02,0,.03,0,.08,0,.15,0,.23,0,.25,0,.49.07.71.19.23.13.46.26.69.4.36.2.71.4,1.06.61.26.16.45.38.57.66.09.2.12.4.12.62,0,.64,0,1.28,0,1.92,0,.42-.15.77-.45,1.07-.1.1-.22.17-.34.24-.24.14-.47.27-.71.41-.32.18-.64.37-.96.55-.32.18-.66.23-1.02.16-.05,0-.1-.03-.15-.03ZM19.67,20.56c0-.29,0-.58,0-.88,0-.11-.02-.22-.05-.32-.09-.26-.25-.46-.5-.6-.19-.11-.38-.22-.58-.33-.31-.18-.61-.35-.92-.53-.14-.08-.29-.13-.46-.15-.2-.01-.38.01-.55.1-.16.09-.32.18-.48.27-.37.21-.73.42-1.1.63-.36.21-.55.52-.55.94,0,.57,0,1.15,0,1.72,0,.07,0,.15.02.22.06.31.23.55.51.71.08.05.17.1.25.15.42.24.84.48,1.26.72.36.2.73.21,1.09.01.17-.09.33-.19.5-.28.32-.19.65-.37.97-.56.12-.07.24-.15.33-.26.17-.2.26-.43.26-.7,0-.29,0-.58,0-.87Z"/>
            <path class="cls-3" d="M17.85,20.85c-.33,0-.67,0-1,0-.09,0-.17-.03-.23-.1-.07-.09-.1-.19-.06-.29.04-.11.13-.18.25-.19.02,0,.04,0,.07,0,.45,0,.91,0,1.36,0,.08,0,.08,0,.06-.07-.09-.28-.26-.5-.5-.67-.17-.12-.36-.19-.57-.22-.28-.03-.54.02-.78.16-.29.17-.5.42-.59.75-.11.39-.04.75.19,1.08.14.21.33.36.57.45.26.1.52.12.79.04.22-.06.41-.17.57-.32.02-.02.04-.03.07-.03.21,0,.42,0,.63,0,0,0,.02,0,.02,0,.02,0,.02.01.02.02,0,.01-.01.02-.02.03-.18.31-.43.55-.75.72-.33.17-.68.24-1.05.21-.37-.03-.7-.17-.99-.4-.22-.18-.39-.39-.52-.64-.13-.26-.19-.54-.18-.84.01-.44.16-.84.45-1.18.26-.31.59-.5.98-.59.23-.06.46-.07.69-.03.45.06.82.26,1.13.6.25.27.4.58.46.94.03.18.03.36,0,.54,0,.05,0,.05-.05.05-.11,0-.23,0-.34,0-.23,0-.46,0-.69,0Z"/>
          </g>
        </g>
        <g>
          <path class="cls-1" d="M10.6,20.75c0,.09.03.18.06.26.08.21.23.36.44.43.23.08.46.07.68-.07.07-.04.12-.1.16-.17.02-.04.05-.05.09-.05.17,0,.34,0,.5,0,.02,0,.04,0,.06,0,0,.03,0,.05-.02.07-.17.39-.46.63-.87.72-.27.06-.55.05-.82-.03-.3-.1-.54-.28-.71-.56-.17-.29-.22-.61-.19-.95.02-.22.08-.42.19-.61.13-.22.31-.39.54-.5.32-.15.65-.18.99-.09.34.08.6.29.76.6.14.25.19.53.18.82,0,.04.01.08-.01.11-.02.02-.07,0-.1,0-.62,0-1.24,0-1.87,0-.02,0-.04,0-.07,0ZM11.32,20.3h0c.22,0,.43,0,.65,0,.05,0,.06,0,.05-.06-.02-.08-.04-.16-.08-.24-.07-.13-.17-.23-.31-.29-.12-.05-.25-.07-.38-.05-.35.03-.56.27-.61.58-.01.06,0,.06.05.06.21,0,.43,0,.64,0Z"/>
          <path class="cls-1" d="M2.15,21.57s-.02.02-.03.03c-.14.2-.33.32-.57.37-.2.04-.41.03-.6-.04-.23-.08-.38-.24-.47-.46-.06-.15-.09-.3-.1-.47,0-.06,0-.12,0-.19,0-.49,0-.99,0-1.48,0-.07,0-.07.07-.07.16,0,.32,0,.48,0,.08,0,.07,0,.07.07,0,.44,0,.88,0,1.32,0,.15,0,.29.04.43.03.12.08.22.18.3.03.03.07.05.11.06.2.06.39.06.56-.07.12-.08.17-.21.2-.34.03-.13.04-.26.04-.39,0-.43,0-.86,0-1.29,0-.1-.01-.09.08-.09.16,0,.31,0,.47,0,.08,0,.07,0,.07.07,0,.14,0,.28,0,.42,0,.68,0,1.36,0,2.04,0,.03,0,.06,0,.09,0,.03,0,.04-.04.04,0,0-.02,0-.02,0-.16,0-.31,0-.47,0-.06,0-.06,0-.06-.06,0-.08,0-.16,0-.24,0-.02,0-.03,0-.05Z"/>
          <path class="cls-1" d="M7.73,21.07c.08,0,.16,0,.24,0,.04,0,.05.01.06.04.03.09.08.17.14.23.09.08.19.13.31.14.15.02.3,0,.43-.07.09-.05.15-.13.15-.24,0-.08-.03-.14-.1-.19-.07-.05-.15-.07-.23-.1-.16-.05-.33-.09-.49-.14-.13-.04-.25-.08-.37-.15-.28-.16-.39-.41-.35-.73.03-.26.19-.45.41-.57.25-.13.51-.16.78-.13.18.02.35.07.5.17.21.14.33.33.37.57,0,.01,0,.03,0,.04,0,.02,0,.03-.02.03,0,0-.02,0-.02,0-.15,0-.3,0-.45,0-.03,0-.05,0-.06-.04-.07-.17-.2-.27-.39-.29-.13-.02-.25-.01-.37.04-.1.05-.16.12-.16.23,0,.09.03.16.11.2.1.06.2.08.31.11.18.05.36.09.53.15.11.04.22.09.32.16.13.09.21.22.24.38.05.28-.01.53-.21.74-.13.14-.3.22-.49.26-.28.06-.55.06-.82-.03-.26-.08-.45-.24-.57-.48-.05-.1-.08-.2-.1-.31-.01-.06-.01-.06.05-.06.08,0,.16,0,.24,0Z"/>
          <path class="cls-1" d="M4.81,20.56c0-.25,0-.51,0-.76,0-.01,0-.02,0-.04,0-.03-.01-.04-.04-.04-.08,0-.17,0-.25,0-.02,0-.04,0-.06,0-.05,0-.05,0-.05-.05,0-.12,0-.24,0-.36,0-.03.01-.04.04-.04.1,0,.21,0,.31,0,.05,0,.05,0,.05-.05,0-.2,0-.39,0-.59,0-.01,0-.03,0-.04,0-.02,0-.04.03-.03,0,0,.01,0,.02,0,.17,0,.35,0,.52,0,.05,0,.05,0,.05.05,0,.2,0,.41,0,.61,0,.06,0,.06.06.06.13,0,.26,0,.39,0,.05,0,.05,0,.05.05,0,.12,0,.24,0,.36,0,.05,0,.05-.05.05-.13,0-.26,0-.39,0-.06,0-.06,0-.06.06,0,.46,0,.92,0,1.39,0,.05,0,.11.02.16.03.08.08.14.17.16.07.02.14.02.22.01.04,0,.04,0,.04.04,0,.12,0,.25,0,.37,0,.03,0,.04-.04.05-.21.02-.43.02-.63-.05-.24-.08-.36-.25-.39-.49,0-.05,0-.1,0-.16,0-.23,0-.46,0-.7Z"/>
          <path class="cls-1" d="M6.37,20.59c0-.42,0-.84,0-1.25,0-.07,0-.07.07-.07.16,0,.32,0,.48,0,.08,0,.07,0,.07.07,0,.69,0,1.38,0,2.08,0,.15,0,.3,0,.45,0,.05,0,.06-.05.06-.17,0-.34,0-.51,0-.06,0-.06,0-.06-.06,0-.36,0-.73,0-1.09v-.17Z"/>
          <path class="cls-1" d="M4.02,20.59c0,.41,0,.82,0,1.24,0,.01,0,.03,0,.04,0,.03-.01.04-.04.04-.18,0-.36,0-.53,0-.03,0-.04-.01-.04-.04,0-.01,0-.02,0-.04v-2.49s0-.02,0-.03c0-.05,0-.05.05-.05.17,0,.35,0,.52,0,.05,0,.05,0,.05.05,0,.2,0,.41,0,.61,0,.22,0,.45,0,.67Z"/>
          <path class="cls-1" d="M3.71,18.88c-.09,0-.18,0-.27,0-.04,0-.05,0-.05-.05,0-.16,0-.32,0-.48,0-.05,0-.05.04-.05.18,0,.37,0,.55,0,.03,0,.04.01.04.04,0,.17,0,.33,0,.5,0,.03-.01.04-.04.04-.09,0-.18,0-.27,0Z"/>
          <path class="cls-1" d="M6.68,18.31c.09,0,.18,0,.27,0,.03,0,.04,0,.04.04,0,.16,0,.33,0,.49,0,.04,0,.04-.05.04-.18,0-.36,0-.55,0-.03,0-.04,0-.04-.04,0-.17,0-.33,0-.5,0-.03.01-.04.04-.04.09,0,.19,0,.28,0Z"/>
          <path class="cls-1" d="M13.47,19.61c-.24,0-.43-.19-.43-.43,0-.24.19-.43.43-.43.24,0,.42.19.42.43,0,.24-.19.42-.43.42ZM13.81,19.19c0-.19-.16-.35-.34-.34-.19,0-.34.16-.34.35,0,.19.15.35.34.34.19,0,.34-.16.34-.35Z"/>
          <path class="cls-1" d="M13.68,19.43s-.07,0-.1,0c-.02,0-.03-.02-.04-.03-.02-.04-.05-.08-.07-.12,0-.01-.02-.03-.04-.02-.02,0-.01.02-.01.04,0,.04,0,.07,0,.11,0,.02,0,.03-.03.03,0,0-.01,0-.02,0-.08,0-.07,0-.07-.07,0-.13,0-.25,0-.38,0-.04,0-.05.04-.05.06,0,.12,0,.18,0,.07,0,.12.04.14.1.02.07,0,.13-.06.17-.03.02-.03.03-.01.06.03.05.06.1.09.16ZM13.41,19.09s0,.02,0,.04c0,.01,0,.02.02.02.03,0,.07,0,.1-.01.02-.01.03-.03.02-.05,0-.02-.02-.04-.04-.04-.02,0-.03,0-.05,0-.06,0-.06,0-.06.05Z"/>
        </g>
        <g>
          <path class="cls-1" d="M13.1,14.71c-.05.05-.09.1-.13.14-.21.18-.45.26-.73.27-.3,0-.56-.08-.79-.27-.18-.15-.3-.34-.38-.57-.1-.28-.11-.57-.06-.86.03-.21.1-.41.22-.58.21-.31.49-.48.86-.51.19-.02.37,0,.55.06.19.06.34.17.46.32,0,.01.01.03.03.03.02-.02,0-.04,0-.06,0-.08,0-.15,0-.23,0-.03.01-.04.04-.04.17,0,.34,0,.51,0,.03,0,.04.01.04.04,0,.01,0,.03,0,.04,0,1.13,0,2.27,0,3.4,0,0,0,.01,0,.02,0,.06,0,.06-.06.06-.17,0-.33,0-.5,0-.06,0-.06,0-.06-.06,0-.38,0-.75,0-1.13,0-.02,0-.03,0-.06ZM11.62,13.72c0,.16.03.32.09.47.11.25.3.4.57.43.33.04.64-.15.76-.45.12-.29.12-.58,0-.87-.11-.28-.32-.43-.62-.46-.3-.02-.54.1-.69.37-.09.16-.12.34-.12.52Z"/>
          <path class="cls-1" d="M24.49,13.89c0,.09.03.18.06.26.08.21.23.36.44.43.23.08.46.07.68-.07.07-.04.12-.1.16-.17.02-.04.05-.05.09-.05.17,0,.34,0,.5,0,.02,0,.04,0,.06,0,0,.03,0,.05-.02.07-.17.39-.46.63-.87.72-.27.06-.55.05-.82-.03-.3-.1-.54-.28-.71-.56-.17-.29-.22-.61-.19-.95.02-.22.08-.42.19-.61.13-.22.31-.39.54-.5.32-.15.65-.18.99-.09.34.08.6.29.76.6.14.25.19.53.18.82,0,.04.01.08-.01.11-.02.02-.07,0-.1,0-.62,0-1.24,0-1.87,0-.02,0-.04,0-.07,0ZM25.22,13.45h0c.22,0,.43,0,.65,0,.05,0,.06,0,.05-.06-.02-.08-.04-.16-.08-.24-.07-.13-.17-.23-.31-.29-.12-.05-.25-.07-.38-.05-.35.03-.56.27-.61.58-.01.06,0,.06.05.06.21,0,.43,0,.64,0Z"/>
          <path class="cls-1" d="M8.63,13.89c0,.1.03.19.07.28.09.2.23.35.43.42.24.08.47.06.68-.07.07-.04.12-.1.16-.17.02-.03.04-.04.08-.04.17,0,.34,0,.52,0,.02,0,.03,0,.05,0-.01.07-.05.13-.08.19-.18.32-.46.52-.81.6-.27.06-.54.05-.81-.03-.28-.08-.5-.24-.66-.48-.19-.28-.26-.6-.25-.93,0-.22.05-.42.15-.62.13-.27.33-.47.6-.59.37-.17.75-.18,1.14-.03.26.1.45.28.58.52.16.29.21.6.19.92,0,.03-.02.04-.04.04-.09,0-.17,0-.26,0-.56,0-1.12,0-1.68,0-.02,0-.04,0-.06,0ZM10.06,13.44c-.02-.2-.1-.36-.25-.49-.17-.14-.36-.16-.57-.14-.1.01-.19.04-.27.09-.19.12-.28.3-.31.51,0,.02,0,.03.03.03.01,0,.02,0,.04,0,.42,0,.85,0,1.27,0,.02,0,.04,0,.07,0Z"/>
          <path class="cls-1" d="M16.04,14.71s-.02.02-.03.03c-.14.2-.33.32-.57.37-.2.04-.41.03-.6-.04-.23-.08-.38-.24-.47-.46-.06-.15-.09-.3-.1-.47,0-.06,0-.12,0-.19,0-.49,0-.99,0-1.48,0-.07,0-.07.07-.07.16,0,.32,0,.48,0,.08,0,.07,0,.07.07,0,.44,0,.88,0,1.32,0,.15,0,.29.04.43.03.12.08.22.18.3.03.03.07.05.11.06.2.06.39.06.56-.07.12-.08.17-.21.2-.34.03-.13.04-.26.04-.39,0-.43,0-.86,0-1.29,0-.1-.01-.09.08-.09.16,0,.31,0,.47,0,.08,0,.07,0,.07.07,0,.14,0,.28,0,.42,0,.68,0,1.36,0,2.04,0,.03,0,.06,0,.09,0,.03,0,.04-.04.04,0,0-.02,0-.02,0-.16,0-.31,0-.47,0-.06,0-.06,0-.06-.06,0-.08,0-.16,0-.24,0-.02,0-.03,0-.05Z"/>
          <path class="cls-1" d="M21.63,14.22c.08,0,.16,0,.24,0,.04,0,.05.01.06.04.03.09.08.17.14.23.09.08.19.13.31.14.15.02.3,0,.43-.07.09-.05.15-.13.15-.24,0-.08-.03-.14-.1-.19-.07-.05-.15-.07-.23-.1-.16-.05-.33-.09-.49-.14-.13-.04-.25-.08-.37-.15-.28-.16-.39-.41-.35-.73.03-.26.19-.45.41-.57.25-.13.51-.16.78-.13.18.02.35.07.5.17.21.14.33.33.37.57,0,.01,0,.03,0,.04,0,.02,0,.03-.02.03,0,0-.02,0-.02,0-.15,0-.3,0-.45,0-.03,0-.05,0-.06-.04-.07-.17-.2-.27-.39-.29-.13-.02-.25-.01-.37.04-.1.05-.16.12-.16.23,0,.09.03.16.11.2.1.06.2.08.31.11.18.05.36.09.53.15.11.04.22.09.32.16.13.09.21.22.24.38.05.28-.01.53-.21.74-.13.14-.3.22-.49.26-.28.06-.55.06-.82-.03-.26-.08-.45-.24-.57-.48-.05-.1-.08-.2-.1-.31-.01-.06-.01-.06.05-.06.08,0,.16,0,.24,0Z"/>
          <path class="cls-1" d="M18.71,13.71c0-.25,0-.51,0-.76,0-.01,0-.02,0-.04,0-.03-.01-.04-.04-.04-.08,0-.17,0-.25,0-.02,0-.04,0-.06,0-.05,0-.05,0-.05-.05,0-.12,0-.24,0-.36,0-.03.01-.04.04-.04.1,0,.21,0,.31,0,.05,0,.05,0,.05-.05,0-.2,0-.39,0-.59,0-.01,0-.03,0-.04,0-.02,0-.04.03-.03,0,0,.01,0,.02,0,.17,0,.35,0,.52,0,.05,0,.05,0,.05.05,0,.2,0,.41,0,.61,0,.06,0,.06.06.06.13,0,.26,0,.39,0,.05,0,.05,0,.05.05,0,.12,0,.24,0,.36,0,.05,0,.05-.05.05-.13,0-.26,0-.39,0-.06,0-.06,0-.06.06,0,.46,0,.92,0,1.39,0,.05,0,.11.02.16.03.08.08.14.17.16.07.02.14.02.22.01.04,0,.04,0,.04.04,0,.12,0,.25,0,.37,0,.03,0,.04-.04.05-.21.02-.43.02-.63-.05-.24-.08-.36-.25-.39-.49,0-.05,0-.1,0-.16,0-.23,0-.46,0-.7Z"/>
          <path class="cls-1" d="M20.26,13.73c0-.42,0-.84,0-1.25,0-.07,0-.07.07-.07.16,0,.32,0,.48,0,.08,0,.07,0,.07.07,0,.69,0,1.38,0,2.08,0,.15,0,.3,0,.45,0,.05,0,.06-.05.06-.17,0-.34,0-.51,0-.06,0-.06,0-.06-.06,0-.36,0-.73,0-1.09v-.17Z"/>
          <path class="cls-1" d="M17.92,13.74c0,.41,0,.82,0,1.24,0,.01,0,.03,0,.04,0,.03-.01.04-.04.04-.18,0-.36,0-.53,0-.03,0-.04-.01-.04-.04,0-.01,0-.02,0-.04v-2.49s0-.02,0-.03c0-.05,0-.05.05-.05.17,0,.35,0,.52,0,.05,0,.05,0,.05.05,0,.2,0,.41,0,.61,0,.22,0,.45,0,.67Z"/>
          <path class="cls-1" d="M17.61,12.03c-.09,0-.18,0-.27,0-.04,0-.05,0-.05-.05,0-.16,0-.32,0-.48,0-.05,0-.05.04-.05.18,0,.37,0,.55,0,.03,0,.04.01.04.04,0,.17,0,.33,0,.5,0,.03-.01.04-.04.04-.09,0-.18,0-.27,0Z"/>
          <path class="cls-1" d="M20.57,11.45c.09,0,.18,0,.27,0,.03,0,.04,0,.04.04,0,.16,0,.33,0,.49,0,.04,0,.04-.05.04-.18,0-.36,0-.55,0-.03,0-.04,0-.04-.04,0-.17,0-.33,0-.5,0-.03.01-.04.04-.04.09,0,.19,0,.28,0Z"/>
          <path class="cls-1" d="M27.36,12.76c-.24,0-.43-.19-.43-.43,0-.24.19-.43.43-.43.24,0,.42.19.42.43,0,.24-.19.42-.43.42ZM27.71,12.33c0-.19-.16-.35-.34-.34-.19,0-.34.16-.34.35,0,.19.15.35.34.34.19,0,.34-.16.34-.35Z"/>
          <path class="cls-1" d="M27.58,12.58s-.07,0-.1,0c-.02,0-.03-.02-.04-.03-.02-.04-.05-.08-.07-.12,0-.01-.02-.03-.04-.02-.02,0-.01.02-.01.04,0,.04,0,.07,0,.11,0,.02,0,.03-.03.03,0,0-.01,0-.02,0-.08,0-.07,0-.07-.07,0-.13,0-.25,0-.38,0-.04,0-.05.04-.05.06,0,.12,0,.18,0,.07,0,.12.04.14.1.02.07,0,.13-.06.17-.03.02-.03.03-.01.06.03.05.06.1.09.16ZM27.31,12.24s0,.02,0,.04c0,.01,0,.02.02.02.03,0,.07,0,.1-.01.02-.01.03-.03.02-.05,0-.02-.02-.04-.04-.04-.02,0-.03,0-.05,0-.06,0-.06,0-.06.05Z"/>
          <g>
            <path class="cls-3" d="M2.74,17.07c-.05-.03-.11-.04-.16-.07-.15-.07-.29-.16-.44-.25-.26-.15-.51-.29-.77-.44-.25-.14-.5-.27-.74-.43-.29-.19-.48-.47-.58-.8C.01,14.96,0,14.83,0,14.69c0-.66,0-1.31,0-1.97,0-.44.17-.8.49-1.1.08-.08.18-.13.27-.19.36-.2.71-.41,1.07-.61.23-.13.46-.26.69-.39.14-.08.28-.12.44-.14,0,0,.02,0,.03,0,.08,0,.15,0,.23,0,.25,0,.49.07.71.19.23.13.46.26.69.4.36.2.71.4,1.06.61.26.16.45.38.57.66.09.2.12.4.12.62,0,.64,0,1.28,0,1.92,0,.42-.15.77-.45,1.07-.1.1-.22.17-.34.24-.24.14-.47.27-.71.41-.32.18-.64.37-.96.55-.32.18-.66.23-1.02.16-.05,0-.1-.03-.15-.03ZM5.78,13.71c0-.29,0-.58,0-.88,0-.11-.02-.22-.05-.32-.09-.26-.25-.46-.5-.6-.19-.11-.38-.22-.58-.33-.31-.18-.61-.35-.92-.53-.14-.08-.29-.13-.46-.15-.2-.01-.38.01-.55.1-.16.09-.32.18-.48.27-.37.21-.73.42-1.1.63-.36.21-.55.52-.55.94,0,.57,0,1.15,0,1.72,0,.07,0,.15.02.22.06.31.23.55.51.71.08.05.17.1.25.15.42.24.84.48,1.26.72.36.2.73.21,1.09.01.17-.09.33-.19.5-.28.32-.19.65-.37.97-.56.12-.07.24-.15.33-.26.17-.2.26-.43.26-.7,0-.29,0-.58,0-.87Z"/>
            <path class="cls-3" d="M3.95,14c-.33,0-.67,0-1,0-.09,0-.17-.03-.23-.1-.07-.09-.1-.19-.06-.29.04-.11.13-.18.25-.19.02,0,.04,0,.07,0,.45,0,.91,0,1.36,0,.08,0,.08,0,.06-.07-.09-.28-.26-.5-.5-.67-.17-.12-.36-.19-.57-.22-.28-.03-.54.02-.78.16-.29.17-.5.42-.59.75-.11.39-.04.75.19,1.08.14.21.33.36.57.45.26.1.52.12.79.04.22-.06.41-.17.57-.32.02-.02.04-.03.07-.03.21,0,.42,0,.63,0,0,0,.02,0,.02,0,.02,0,.02.01.02.02,0,.01-.01.02-.02.03-.18.31-.43.55-.75.72-.33.17-.68.24-1.05.21-.37-.03-.7-.17-.99-.4-.22-.18-.39-.39-.52-.64-.13-.26-.19-.54-.18-.84.01-.44.16-.84.45-1.18.26-.31.59-.5.98-.59.23-.06.46-.07.69-.03.45.06.82.26,1.13.6.25.27.4.58.46.94.03.18.03.36,0,.54,0,.05,0,.05-.05.05-.11,0-.23,0-.34,0-.23,0-.46,0-.69,0Z"/>
          </g>
        </g>
        <g>
          <path class="cls-1" d="M27,7.86c-.05.05-.09.1-.13.14-.21.18-.45.26-.73.27-.3,0-.56-.08-.79-.27-.18-.15-.3-.34-.38-.57-.1-.28-.11-.57-.06-.86.03-.21.1-.41.22-.58.21-.31.49-.48.86-.51.19-.02.37,0,.55.06.19.06.34.17.46.32,0,.01.01.03.03.03.02-.02,0-.04,0-.06,0-.08,0-.15,0-.23,0-.03.01-.04.04-.04.17,0,.34,0,.51,0,.03,0,.04.01.04.04,0,.01,0,.03,0,.04,0,1.13,0,2.27,0,3.4,0,0,0,.01,0,.02,0,.06,0,.06-.06.06-.17,0-.33,0-.5,0-.06,0-.06,0-.06-.06,0-.38,0-.75,0-1.13,0-.02,0-.03,0-.06ZM25.52,6.86c0,.16.03.32.09.47.11.25.3.4.57.43.33.04.64-.15.76-.45.12-.29.12-.58,0-.87-.11-.28-.32-.43-.62-.46-.3-.02-.54.1-.69.37-.09.16-.12.34-.12.52Z"/>
          <path class="cls-1" d="M22.53,7.03c0,.1.03.19.07.28.09.2.23.35.43.42.24.08.47.06.68-.07.07-.04.12-.1.16-.17.02-.03.04-.04.08-.04.17,0,.34,0,.52,0,.02,0,.03,0,.05,0-.01.07-.05.13-.08.19-.18.32-.46.52-.81.6-.27.06-.54.05-.81-.03-.28-.08-.5-.24-.66-.48-.19-.28-.26-.6-.25-.93,0-.22.05-.42.15-.62.13-.27.33-.47.6-.59.37-.17.75-.18,1.14-.03.26.1.45.28.58.52.16.29.21.6.19.92,0,.03-.02.04-.04.04-.09,0-.17,0-.26,0-.56,0-1.12,0-1.68,0-.02,0-.04,0-.06,0ZM23.95,6.58c-.02-.2-.1-.36-.25-.49-.17-.14-.36-.16-.57-.14-.1.01-.19.04-.27.09-.19.12-.28.3-.31.51,0,.02,0,.03.03.03.01,0,.02,0,.04,0,.42,0,.85,0,1.27,0,.02,0,.04,0,.07,0Z"/>
          <g>
            <path class="cls-3" d="M16.64,10.22c-.05-.03-.11-.04-.16-.07-.15-.07-.29-.16-.44-.25-.26-.15-.51-.29-.77-.44-.25-.14-.5-.27-.74-.43-.29-.19-.48-.47-.58-.8-.04-.13-.05-.26-.05-.4,0-.66,0-1.31,0-1.97,0-.44.17-.8.49-1.1.08-.08.18-.13.27-.19.36-.2.71-.41,1.07-.61.23-.13.46-.26.69-.39.14-.08.28-.12.44-.14,0,0,.02,0,.03,0,.08,0,.15,0,.23,0,.25,0,.49.07.71.19.23.13.46.26.69.4.36.2.71.4,1.06.61.26.16.45.38.57.66.09.2.12.4.12.62,0,.64,0,1.28,0,1.92,0,.42-.15.77-.45,1.07-.1.1-.22.17-.34.24-.24.14-.47.27-.71.41-.32.18-.64.37-.96.55-.32.18-.66.23-1.02.16-.05,0-.1-.03-.15-.03ZM19.67,6.85c0-.29,0-.58,0-.88,0-.11-.02-.22-.05-.32-.09-.26-.25-.46-.5-.6-.19-.11-.38-.22-.58-.33-.31-.18-.61-.35-.92-.53-.14-.08-.29-.13-.46-.15-.2-.01-.38.01-.55.1-.16.09-.32.18-.48.27-.37.21-.73.42-1.1.63-.36.21-.55.52-.55.94,0,.57,0,1.15,0,1.72,0,.07,0,.15.02.22.06.31.23.55.51.71.08.05.17.1.25.15.42.24.84.48,1.26.72.36.2.73.21,1.09.01.17-.09.33-.19.5-.28.32-.19.65-.37.97-.56.12-.07.24-.15.33-.26.17-.2.26-.43.26-.7,0-.29,0-.58,0-.87Z"/>
            <path class="cls-3" d="M17.85,7.15c-.33,0-.67,0-1,0-.09,0-.17-.03-.23-.1-.07-.09-.1-.19-.06-.29.04-.11.13-.18.25-.19.02,0,.04,0,.07,0,.45,0,.91,0,1.36,0,.08,0,.08,0,.06-.07-.09-.28-.26-.5-.5-.67-.17-.12-.36-.19-.57-.22-.28-.03-.54.02-.78.16-.29.17-.5.42-.59.75-.11.39-.04.75.19,1.08.14.21.33.36.57.45.26.1.52.12.79.04.22-.06.41-.17.57-.32.02-.02.04-.03.07-.03.21,0,.42,0,.63,0,0,0,.02,0,.02,0,.02,0,.02.01.02.02,0,.01-.01.02-.02.03-.18.31-.43.55-.75.72-.33.17-.68.24-1.05.21-.37-.03-.7-.17-.99-.4-.22-.18-.39-.39-.52-.64-.13-.26-.19-.54-.18-.84.01-.44.16-.84.45-1.18.26-.31.59-.5.98-.59.23-.06.46-.07.69-.03.45.06.82.26,1.13.6.25.27.4.58.46.94.03.18.03.36,0,.54,0,.05,0,.05-.05.05-.11,0-.23,0-.34,0-.23,0-.46,0-.69,0Z"/>
          </g>
        </g>
        <g>
          <path class="cls-1" d="M10.6,7.04c0,.09.03.18.06.26.08.21.23.36.44.43.23.08.46.07.68-.07.07-.04.12-.1.16-.17.02-.04.05-.05.09-.05.17,0,.34,0,.5,0,.02,0,.04,0,.06,0,0,.03,0,.05-.02.07-.17.39-.46.63-.87.72-.27.06-.55.05-.82-.03-.3-.1-.54-.28-.71-.56-.17-.29-.22-.61-.19-.95.02-.22.08-.42.19-.61.13-.22.31-.39.54-.5.32-.15.65-.18.99-.09.34.08.6.29.76.6.14.25.19.53.18.82,0,.04.01.08-.01.11-.02.02-.07,0-.1,0-.62,0-1.24,0-1.87,0-.02,0-.04,0-.07,0ZM11.32,6.59h0c.22,0,.43,0,.65,0,.05,0,.06,0,.05-.06-.02-.08-.04-.16-.08-.24-.07-.13-.17-.23-.31-.29-.12-.05-.25-.07-.38-.05-.35.03-.56.27-.61.58-.01.06,0,.06.05.06.21,0,.43,0,.64,0Z"/>
          <path class="cls-1" d="M2.15,7.86s-.02.02-.03.03c-.14.2-.33.32-.57.37-.2.04-.41.03-.6-.04-.23-.08-.38-.24-.47-.46-.06-.15-.09-.3-.1-.47,0-.06,0-.12,0-.19,0-.49,0-.99,0-1.48,0-.07,0-.07.07-.07.16,0,.32,0,.48,0,.08,0,.07,0,.07.07,0,.44,0,.88,0,1.32,0,.15,0,.29.04.43.03.12.08.22.18.3.03.03.07.05.11.06.2.06.39.06.56-.07.12-.08.17-.21.2-.34.03-.13.04-.26.04-.39,0-.43,0-.86,0-1.29,0-.1-.01-.09.08-.09.16,0,.31,0,.47,0,.08,0,.07,0,.07.07,0,.14,0,.28,0,.42,0,.68,0,1.36,0,2.04,0,.03,0,.06,0,.09,0,.03,0,.04-.04.04,0,0-.02,0-.02,0-.16,0-.31,0-.47,0-.06,0-.06,0-.06-.06,0-.08,0-.16,0-.24,0-.02,0-.03,0-.05Z"/>
          <path class="cls-1" d="M7.73,7.37c.08,0,.16,0,.24,0,.04,0,.05.01.06.04.03.09.08.17.14.23.09.08.19.13.31.14.15.02.3,0,.43-.07.09-.05.15-.13.15-.24,0-.08-.03-.14-.1-.19-.07-.05-.15-.07-.23-.1-.16-.05-.33-.09-.49-.14-.13-.04-.25-.08-.37-.15-.28-.16-.39-.41-.35-.73.03-.26.19-.45.41-.57.25-.13.51-.16.78-.13.18.02.35.07.5.17.21.14.33.33.37.57,0,.01,0,.03,0,.04,0,.02,0,.03-.02.03,0,0-.02,0-.02,0-.15,0-.3,0-.45,0-.03,0-.05,0-.06-.04-.07-.17-.2-.27-.39-.29-.13-.02-.25-.01-.37.04-.1.05-.16.12-.16.23,0,.09.03.16.11.2.1.06.2.08.31.11.18.05.36.09.53.15.11.04.22.09.32.16.13.09.21.22.24.38.05.28-.01.53-.21.74-.13.14-.3.22-.49.26-.28.06-.55.06-.82-.03-.26-.08-.45-.24-.57-.48-.05-.1-.08-.2-.1-.31-.01-.06-.01-.06.05-.06.08,0,.16,0,.24,0Z"/>
          <path class="cls-1" d="M4.81,6.85c0-.25,0-.51,0-.76,0-.01,0-.02,0-.04,0-.03-.01-.04-.04-.04-.08,0-.17,0-.25,0-.02,0-.04,0-.06,0-.05,0-.05,0-.05-.05,0-.12,0-.24,0-.36,0-.03.01-.04.04-.04.1,0,.21,0,.31,0,.05,0,.05,0,.05-.05,0-.2,0-.39,0-.59,0-.01,0-.03,0-.04,0-.02,0-.04.03-.03,0,0,.01,0,.02,0,.17,0,.35,0,.52,0,.05,0,.05,0,.05.05,0,.2,0,.41,0,.61,0,.06,0,.06.06.06.13,0,.26,0,.39,0,.05,0,.05,0,.05.05,0,.12,0,.24,0,.36,0,.05,0,.05-.05.05-.13,0-.26,0-.39,0-.06,0-.06,0-.06.06,0,.46,0,.92,0,1.39,0,.05,0,.11.02.16.03.08.08.14.17.16.07.02.14.02.22.01.04,0,.04,0,.04.04,0,.12,0,.25,0,.37,0,.03,0,.04-.04.05-.21.02-.43.02-.63-.05-.24-.08-.36-.25-.39-.49,0-.05,0-.1,0-.16,0-.23,0-.46,0-.7Z"/>
          <path class="cls-1" d="M6.37,6.88c0-.42,0-.84,0-1.25,0-.07,0-.07.07-.07.16,0,.32,0,.48,0,.08,0,.07,0,.07.07,0,.69,0,1.38,0,2.08,0,.15,0,.3,0,.45,0,.05,0,.06-.05.06-.17,0-.34,0-.51,0-.06,0-.06,0-.06-.06,0-.36,0-.73,0-1.09v-.17Z"/>
          <path class="cls-1" d="M4.02,6.89c0,.41,0,.82,0,1.24,0,.01,0,.03,0,.04,0,.03-.01.04-.04.04-.18,0-.36,0-.53,0-.03,0-.04-.01-.04-.04,0-.01,0-.02,0-.04v-2.49s0-.02,0-.03c0-.05,0-.05.05-.05.17,0,.35,0,.52,0,.05,0,.05,0,.05.05,0,.2,0,.41,0,.61,0,.22,0,.45,0,.67Z"/>
          <path class="cls-1" d="M3.71,5.17c-.09,0-.18,0-.27,0-.04,0-.05,0-.05-.05,0-.16,0-.32,0-.48,0-.05,0-.05.04-.05.18,0,.37,0,.55,0,.03,0,.04.01.04.04,0,.17,0,.33,0,.5,0,.03-.01.04-.04.04-.09,0-.18,0-.27,0Z"/>
          <path class="cls-1" d="M6.68,4.6c.09,0,.18,0,.27,0,.03,0,.04,0,.04.04,0,.16,0,.33,0,.49,0,.04,0,.04-.05.04-.18,0-.36,0-.55,0-.03,0-.04,0-.04-.04,0-.17,0-.33,0-.5,0-.03.01-.04.04-.04.09,0,.19,0,.28,0Z"/>
          <path class="cls-1" d="M13.47,5.9c-.24,0-.43-.19-.43-.43,0-.24.19-.43.43-.43.24,0,.42.19.42.43,0,.24-.19.42-.43.42ZM13.81,5.48c0-.19-.16-.35-.34-.34-.19,0-.34.16-.34.35,0,.19.15.35.34.34.19,0,.34-.16.34-.35Z"/>
          <path class="cls-1" d="M13.68,5.73s-.07,0-.1,0c-.02,0-.03-.02-.04-.03-.02-.04-.05-.08-.07-.12,0-.01-.02-.03-.04-.02-.02,0-.01.02-.01.04,0,.04,0,.07,0,.11,0,.02,0,.03-.03.03,0,0-.01,0-.02,0-.08,0-.07,0-.07-.07,0-.13,0-.25,0-.38,0-.04,0-.05.04-.05.06,0,.12,0,.18,0,.07,0,.12.04.14.1.02.07,0,.13-.06.17-.03.02-.03.03-.01.06.03.05.06.1.09.16ZM13.41,5.39s0,.02,0,.04c0,.01,0,.02.02.02.03,0,.07,0,.1-.01.02-.01.03-.03.02-.05,0-.02-.02-.04-.04-.04-.02,0-.03,0-.05,0-.06,0-.06,0-.06.05Z"/>
        </g>
        <g>
          <path class="cls-1" d="M13.1,1c-.05.05-.09.1-.13.14-.21.18-.45.26-.73.27-.3,0-.56-.08-.79-.27-.18-.15-.3-.34-.38-.57-.1-.28-.11-.57-.06-.86.03-.21.1-.41.22-.58.21-.31.49-.48.86-.51.19-.02.37,0,.55.06.19.06.34.17.46.32,0,.01.01.03.03.03.02-.02,0-.04,0-.06,0-.08,0-.15,0-.23,0-.03.01-.04.04-.04.17,0,.34,0,.51,0,.03,0,.04.01.04.04,0,.01,0,.03,0,.04,0,1.13,0,2.27,0,3.4,0,0,0,.01,0,.02,0,.06,0,.06-.06.06-.17,0-.33,0-.5,0-.06,0-.06,0-.06-.06,0-.38,0-.75,0-1.13,0-.02,0-.03,0-.06ZM11.62,0c0,.16.03.32.09.47.11.25.3.4.57.43.33.04.64-.15.76-.45.12-.29.12-.58,0-.87-.11-.28-.32-.43-.62-.46-.3-.02-.54.1-.69.37-.09.16-.12.34-.12.52Z"/>
          <path class="cls-1" d="M24.49.18c0,.09.03.18.06.26.08.21.23.36.44.43.23.08.46.07.68-.07.07-.04.12-.1.16-.17.02-.04.05-.05.09-.05.17,0,.34,0,.5,0,.02,0,.04,0,.06,0,0,.03,0,.05-.02.07-.17.39-.46.63-.87.72-.27.06-.55.05-.82-.03-.3-.1-.54-.28-.71-.56-.17-.29-.22-.61-.19-.95.02-.22.08-.42.19-.61.13-.22.31-.39.54-.5.32-.15.65-.18.99-.09.34.08.6.29.76.6.14.25.19.53.18.82,0,.04.01.08-.01.11-.02.02-.07,0-.1,0-.62,0-1.24,0-1.87,0-.02,0-.04,0-.07,0ZM25.22-.26h0c.22,0,.43,0,.65,0,.05,0,.06,0,.05-.06-.02-.08-.04-.16-.08-.24-.07-.13-.17-.23-.31-.29-.12-.05-.25-.07-.38-.05-.35.03-.56.27-.61.58-.01.06,0,.06.05.06.21,0,.43,0,.64,0Z"/>
          <path class="cls-1" d="M8.63.18c0,.1.03.19.07.28.09.2.23.35.43.42.24.08.47.06.68-.07.07-.04.12-.1.16-.17.02-.03.04-.04.08-.04.17,0,.34,0,.52,0,.02,0,.03,0,.05,0-.01.07-.05.13-.08.19-.18.32-.46.52-.81.6-.27.06-.54.05-.81-.03-.28-.08-.5-.24-.66-.48-.19-.28-.26-.6-.25-.93,0-.22.05-.42.15-.62.13-.27.33-.47.6-.59.37-.17.75-.18,1.14-.03.26.1.45.28.58.52.16.29.21.6.19.92,0,.03-.02.04-.04.04-.09,0-.17,0-.26,0-.56,0-1.12,0-1.68,0-.02,0-.04,0-.06,0ZM10.06-.27c-.02-.2-.1-.36-.25-.49-.17-.14-.36-.16-.57-.14-.1.01-.19.04-.27.09-.19.12-.28.3-.31.51,0,.02,0,.03.03.03.01,0,.02,0,.04,0,.42,0,.85,0,1.27,0,.02,0,.04,0,.07,0Z"/>
          <path class="cls-1" d="M16.04,1s-.02.02-.03.03c-.14.2-.33.32-.57.37-.2.04-.41.03-.6-.04-.23-.08-.38-.24-.47-.46-.06-.15-.09-.3-.1-.47,0-.06,0-.12,0-.19,0-.49,0-.99,0-1.48,0-.07,0-.07.07-.07.16,0,.32,0,.48,0,.08,0,.07,0,.07.07,0,.44,0,.88,0,1.32,0,.15,0,.29.04.43.03.12.08.22.18.3.03.03.07.05.11.06.2.06.39.06.56-.07.12-.08.17-.21.2-.34.03-.13.04-.26.04-.39,0-.43,0-.86,0-1.29,0-.1-.01-.09.08-.09.16,0,.31,0,.47,0,.08,0,.07,0,.07.07,0,.14,0,.28,0,.42,0,.68,0,1.36,0,2.04,0,.03,0,.06,0,.09,0,.03,0,.04-.04.04,0,0-.02,0-.02,0-.16,0-.31,0-.47,0-.06,0-.06,0-.06-.06,0-.08,0-.16,0-.24,0-.02,0-.03,0-.05Z"/>
          <path class="cls-1" d="M21.63.51c.08,0,.16,0,.24,0,.04,0,.05.01.06.04.03.09.08.17.14.23.09.08.19.13.31.14.15.02.3,0,.43-.07.09-.05.15-.13.15-.24,0-.08-.03-.14-.1-.19-.07-.05-.15-.07-.23-.1-.16-.05-.33-.09-.49-.14-.13-.04-.25-.08-.37-.15-.28-.16-.39-.41-.35-.73.03-.26.19-.45.41-.57.25-.13.51-.16.78-.13.18.02.35.07.5.17.21.14.33.33.37.57,0,.01,0,.03,0,.04,0,.02,0,.03-.02.03,0,0-.02,0-.02,0-.15,0-.3,0-.45,0-.03,0-.05,0-.06-.04-.07-.17-.2-.27-.39-.29-.13-.02-.25-.01-.37.04-.1.05-.16.12-.16.23,0,.09.03.16.11.2.1.06.2.08.31.11.18.05.36.09.53.15.11.04.22.09.32.16.13.09.21.22.24.38.05.28-.01.53-.21.74-.13.14-.3.22-.49.26-.28.06-.55.06-.82-.03-.26-.08-.45-.24-.57-.48-.05-.1-.08-.2-.1-.31-.01-.06-.01-.06.05-.06.08,0,.16,0,.24,0Z"/>
          <path class="cls-1" d="M18.71,0c0-.25,0-.51,0-.76,0-.01,0-.02,0-.04,0-.03-.01-.04-.04-.04-.08,0-.17,0-.25,0-.02,0-.04,0-.06,0-.05,0-.05,0-.05-.05,0-.12,0-.24,0-.36,0-.03.01-.04.04-.04.1,0,.21,0,.31,0,.05,0,.05,0,.05-.05,0-.2,0-.39,0-.59,0-.01,0-.03,0-.04,0-.02,0-.04.03-.03,0,0,.01,0,.02,0,.17,0,.35,0,.52,0,.05,0,.05,0,.05.05,0,.2,0,.41,0,.61,0,.06,0,.06.06.06.13,0,.26,0,.39,0,.05,0,.05,0,.05.05,0,.12,0,.24,0,.36,0,.05,0,.05-.05.05-.13,0-.26,0-.39,0-.06,0-.06,0-.06.06,0,.46,0,.92,0,1.39,0,.05,0,.11.02.16.03.08.08.14.17.16.07.02.14.02.22.01.04,0,.04,0,.04.04,0,.12,0,.25,0,.37,0,.03,0,.04-.04.05-.21.02-.43.02-.63-.05-.24-.08-.36-.25-.39-.49,0-.05,0-.1,0-.16,0-.23,0-.46,0-.7Z"/>
          <path class="cls-1" d="M20.26.02c0-.42,0-.84,0-1.25,0-.07,0-.07.07-.07.16,0,.32,0,.48,0,.08,0,.07,0,.07.07,0,.69,0,1.38,0,2.08,0,.15,0,.3,0,.45,0,.05,0,.06-.05.06-.17,0-.34,0-.51,0-.06,0-.06,0-.06-.06,0-.36,0-.73,0-1.09V.02Z"/>
          <path class="cls-1" d="M17.92.03c0,.41,0,.82,0,1.24,0,.01,0,.03,0,.04,0,.03-.01.04-.04.04-.18,0-.36,0-.53,0-.03,0-.04-.01-.04-.04,0-.01,0-.02,0-.04V-1.22s0-.02,0-.03c0-.05,0-.05.05-.05.17,0,.35,0,.52,0,.05,0,.05,0,.05.05,0,.2,0,.41,0,.61,0,.22,0,.45,0,.67Z"/>
          <g>
            <path class="cls-3" d="M2.74,3.37c-.05-.03-.11-.04-.16-.07-.15-.07-.29-.16-.44-.25-.26-.15-.51-.29-.77-.44-.25-.14-.5-.27-.74-.43-.29-.19-.48-.47-.58-.8C.01,1.25,0,1.12,0,.98,0,.33,0-.33,0-.98c0-.44.17-.8.49-1.1.08-.08.18-.13.27-.19.36-.2.71-.41,1.07-.61.23-.13.46-.26.69-.39.14-.08.28-.12.44-.14,0,0,.02,0,.03,0,.08,0,.15,0,.23,0,.25,0,.49.07.71.19.23.13.46.26.69.4.36.2.71.4,1.06.61.26.16.45.38.57.66.09.2.12.4.12.62,0,.64,0,1.28,0,1.92,0,.42-.15.77-.45,1.07-.1.1-.22.17-.34.24-.24.14-.47.27-.71.41-.32.18-.64.37-.96.55-.32.18-.66.23-1.02.16-.05,0-.1-.03-.15-.03ZM5.78,0c0-.29,0-.58,0-.88,0-.11-.02-.22-.05-.32-.09-.26-.25-.46-.5-.6-.19-.11-.38-.22-.58-.33-.31-.18-.61-.35-.92-.53-.14-.08-.29-.13-.46-.15-.2-.01-.38.01-.55.1-.16.09-.32.18-.48.27-.37.21-.73.42-1.1.63-.36.21-.55.52-.55.94,0,.57,0,1.15,0,1.72,0,.07,0,.15.02.22.06.31.23.55.51.71.08.05.17.1.25.15.42.24.84.48,1.26.72.36.2.73.21,1.09.01.17-.09.33-.19.5-.28.32-.19.65-.37.97-.56.12-.07.24-.15.33-.26.17-.2.26-.43.26-.7,0-.29,0-.58,0-.87Z"/>
            <path class="cls-3" d="M3.95.29c-.33,0-.67,0-1,0-.09,0-.17-.03-.23-.1-.07-.09-.1-.19-.06-.29.04-.11.13-.18.25-.19.02,0,.04,0,.07,0,.45,0,.91,0,1.36,0,.08,0,.08,0,.06-.07-.09-.28-.26-.5-.5-.67-.17-.12-.36-.19-.57-.22-.28-.03-.54.02-.78.16-.29.17-.5.42-.59.75-.11.39-.04.75.19,1.08.14.21.33.36.57.45.26.1.52.12.79.04.22-.06.41-.17.57-.32.02-.02.04-.03.07-.03.21,0,.42,0,.63,0,0,0,.02,0,.02,0,.02,0,.02.01.02.02,0,.01-.01.02-.02.03-.18.31-.43.55-.75.72-.33.17-.68.24-1.05.21-.37-.03-.7-.17-.99-.4-.22-.18-.39-.39-.52-.64-.13-.26-.19-.54-.18-.84.01-.44.16-.84.45-1.18.26-.31.59-.5.98-.59.23-.06.46-.07.69-.03.45.06.82.26,1.13.6.25.27.4.58.46.94.03.18.03.36,0,.54,0,.05,0,.05-.05.05-.11,0-.23,0-.34,0-.23,0-.46,0-.69,0Z"/>
          </g>
        </g>
      </g>
    </pattern>
  </defs>
  <g>
    <rect class="cls-7" x="6.59" y="1.98" width="139.7" height="189.79" rx="8.44" ry="8.44"/>
    <rect class="cls-2" x="6.59" y="1.98" width="139.7" height="189.79" rx="8.44" ry="8.44"/>
    <rect class="cls-1" x="6.59" y="1.98" width="139.7" height="189.79" rx="8.44" ry="8.44"/>
    <rect class="cls-1" x="6.59" y="1.98" width="139.7" height="189.79" rx="8.44" ry="8.44"/>
    <rect class="cls-1" x="6.59" y="1.98" width="139.7" height="189.79" rx="8.44" ry="8.44"/>
    <rect class="cls-1" x="6.59" y="1.98" width="139.7" height="189.79" rx="8.44" ry="8.44"/>
    <g>
      <path class="cls-10" d="M74.23,46.41c-.15.15-.25.28-.38.39-.58.5-1.27.73-2.03.74-.82,0-1.58-.22-2.22-.75-.51-.42-.84-.96-1.05-1.58-.27-.78-.29-1.59-.18-2.4.09-.59.28-1.13.62-1.62.58-.85,1.38-1.33,2.4-1.43.52-.05,1.03,0,1.53.16.52.17.95.47,1.29.89.02.03.04.07.08.09.04-.05.02-.11.02-.17,0-.21,0-.43,0-.64,0-.08.03-.11.11-.11.47,0,.95,0,1.42,0,.08,0,.11.03.1.1,0,.04,0,.08,0,.12,0,3.17,0,6.33,0,9.5,0,.02,0,.03,0,.05,0,.17,0,.17-.17.17-.46,0-.93,0-1.39,0-.17,0-.17,0-.17-.17,0-1.05,0-2.11,0-3.16,0-.05,0-.09,0-.18ZM70.08,43.62c0,.45.07.89.26,1.3.31.69.83,1.12,1.6,1.2.92.1,1.78-.41,2.13-1.26.33-.81.32-1.63,0-2.43-.31-.77-.89-1.21-1.73-1.28-.85-.06-1.5.27-1.92,1.02-.25.45-.34.94-.34,1.45Z"/>
      <path class="cls-10" d="M106.06,44.13c.02.25.08.5.17.73.24.58.63,1.01,1.23,1.21.65.21,1.29.18,1.89-.19.19-.12.34-.28.46-.47.06-.1.13-.14.25-.13.47,0,.94,0,1.41,0,.05,0,.1,0,.15.01,0,.08-.03.14-.05.2-.47,1.09-1.29,1.75-2.44,2.02-.77.18-1.53.15-2.28-.08-.85-.27-1.52-.78-1.97-1.55-.48-.82-.62-1.71-.54-2.64.05-.61.22-1.18.53-1.71.36-.62.87-1.1,1.52-1.41.89-.42,1.82-.5,2.76-.26.95.24,1.67.8,2.13,1.67.38.71.52,1.48.49,2.28,0,.1.04.23-.04.3-.07.06-.19.02-.29.02-1.74,0-3.48-.01-5.21-.02-.06,0-.12-.01-.18.02ZM108.08,42.88h0c.61,0,1.21,0,1.82,0,.15,0,.16,0,.13-.16-.04-.23-.11-.46-.23-.67-.2-.36-.48-.64-.87-.81-.34-.15-.7-.18-1.07-.15-.98.09-1.56.74-1.72,1.63-.03.16-.02.16.14.16.6,0,1.19,0,1.79,0Z"/>
      <path class="cls-10" d="M61.73,44.09c.01.28.09.54.19.79.24.56.63.97,1.21,1.16.66.21,1.3.18,1.9-.2.19-.12.34-.28.45-.47.06-.09.12-.12.22-.12.48,0,.96,0,1.44,0,.05,0,.09,0,.14.02-.04.19-.13.37-.22.54-.5.9-1.27,1.44-2.28,1.67-.76.17-1.52.15-2.27-.08-.77-.24-1.4-.68-1.86-1.35-.54-.79-.72-1.67-.69-2.6.02-.6.15-1.18.42-1.72.37-.75.93-1.31,1.69-1.65,1.04-.47,2.11-.5,3.18-.09.72.27,1.26.77,1.63,1.44.45.8.58,1.66.53,2.56,0,.09-.04.11-.12.1-.24,0-.49,0-.73,0-1.56,0-3.13,0-4.69-.01-.06,0-.12,0-.18.02ZM65.71,42.83c-.06-.55-.27-1.02-.7-1.37-.46-.38-1.01-.46-1.59-.39-.27.03-.52.12-.75.26-.53.33-.77.84-.88,1.43-.01.06,0,.09.07.09.03,0,.07,0,.1,0,1.19,0,2.37,0,3.56,0,.06,0,.12.01.18-.02Z"/>
      <path class="cls-10" d="M82.44,46.4c-.06,0-.07.06-.09.1-.39.57-.93.91-1.61,1.02-.57.1-1.13.07-1.68-.12-.64-.22-1.07-.67-1.32-1.29-.17-.42-.25-.85-.28-1.3,0-.17-.01-.35-.01-.52,0-1.38,0-2.75,0-4.13,0-.2-.02-.19.18-.19.45,0,.9,0,1.36,0,.22,0,.19,0,.19.2,0,1.23,0,2.45,0,3.68,0,.41.01.81.12,1.2.09.32.24.61.51.83.09.07.19.13.3.16.55.17,1.08.16,1.56-.19.32-.23.48-.58.57-.95.09-.36.12-.73.12-1.1,0-1.2,0-2.4,0-3.59,0-.27-.04-.24.24-.24.43,0,.87,0,1.3,0,.21,0,.19,0,.19.18,0,.39,0,.78,0,1.16,0,1.9,0,3.8,0,5.69,0,.09,0,.17,0,.26,0,.07-.02.11-.1.1-.02,0-.05,0-.07,0-.43,0-.87,0-1.3,0-.17,0-.17,0-.17-.17,0-.23,0-.45,0-.68,0-.04.02-.09-.02-.13Z"/>
      <path class="cls-10" d="M98.06,45.04c.23,0,.45,0,.68,0,.1,0,.14.03.17.12.08.25.21.46.4.64.24.23.53.36.87.4.42.05.84.03,1.21-.2.25-.15.41-.35.42-.66.01-.23-.09-.4-.27-.53-.19-.13-.42-.2-.64-.27-.46-.13-.91-.25-1.37-.39-.36-.1-.7-.23-1.03-.41-.79-.43-1.1-1.15-.98-2.03.1-.73.52-1.25,1.16-1.59.69-.37,1.43-.45,2.19-.37.5.05.97.2,1.4.49.58.38.92.92,1.02,1.6,0,.04,0,.08.01.12,0,.05-.02.07-.07.08-.02,0-.05,0-.07,0-.42,0-.83,0-1.25,0-.09,0-.14-.02-.18-.12-.2-.48-.57-.74-1.08-.81-.35-.05-.69-.04-1.02.11-.27.13-.43.34-.45.65-.01.25.09.44.3.56.27.16.56.24.86.32.5.13,1,.24,1.49.42.32.12.62.25.9.45.37.26.6.61.67,1.05.13.78-.03,1.49-.6,2.07-.37.38-.84.61-1.36.73-.77.18-1.54.16-2.3-.07-.72-.22-1.26-.67-1.59-1.36-.13-.27-.21-.56-.28-.85-.04-.17-.04-.18.13-.18.22,0,.44,0,.66,0Z"/>
      <path class="cls-10" d="M89.88,43.6c0-.71,0-1.41,0-2.12,0-.03,0-.07,0-.1,0-.09-.03-.12-.12-.12-.23,0-.46,0-.69,0-.05,0-.1,0-.16,0-.15,0-.15,0-.15-.15,0-.34,0-.67,0-1.01,0-.09.03-.12.12-.12.29,0,.58,0,.87,0,.13,0,.13,0,.13-.14,0-.55,0-1.1,0-1.65,0-.04,0-.08,0-.12,0-.06.02-.1.09-.1.02,0,.03,0,.05,0,.49,0,.97,0,1.46,0,.13,0,.13,0,.13.14,0,.57,0,1.13,0,1.7,0,.16,0,.16.16.16.36,0,.73,0,1.09,0,.13,0,.13,0,.14.13,0,.34,0,.67,0,1.01,0,.13,0,.14-.13.14-.36,0-.73,0-1.09,0-.16,0-.16,0-.16.16,0,1.29,0,2.58,0,3.87,0,.15.02.3.06.45.07.24.23.38.47.44.2.05.4.05.6.03.11,0,.12,0,.12.11,0,.35,0,.69,0,1.04,0,.08-.02.12-.1.13-.6.06-1.19.06-1.77-.13-.67-.22-1.01-.7-1.09-1.38-.02-.14-.02-.29-.02-.43,0-.65,0-1.3,0-1.94Z"/>
      <path class="cls-10" d="M94.23,43.68c0-1.17,0-2.34,0-3.51,0-.19-.02-.19.19-.19.45,0,.9,0,1.36,0,.22,0,.19,0,.19.2,0,1.93,0,3.87,0,5.8,0,.42,0,.83,0,1.25,0,.15,0,.16-.15.16-.47,0-.95,0-1.42,0-.16,0-.16,0-.16-.17,0-1.02,0-2.04,0-3.06v-.49Z"/>
      <path class="cls-10" d="M87.68,43.69c0,1.15,0,2.3,0,3.45,0,.04,0,.08,0,.12,0,.09-.04.12-.12.12-.5,0-1,0-1.49,0-.1,0-.12-.04-.12-.12,0-.03,0-.07,0-.1,0-2.32,0-4.64,0-6.96,0-.03,0-.06,0-.09,0-.13,0-.13.14-.13.49,0,.97,0,1.46,0,.13,0,.13,0,.13.14,0,.57,0,1.13,0,1.7,0,.62,0,1.25,0,1.87Z"/>
      <path class="cls-10" d="M86.81,38.91c-.25,0-.51,0-.76,0-.12,0-.13,0-.13-.13,0-.45,0-.9,0-1.35,0-.13,0-.13.12-.13.51,0,1.03,0,1.54,0,.08,0,.11.03.11.11,0,.46,0,.92,0,1.39,0,.09-.04.12-.12.12-.25,0-.51,0-.76,0Z"/>
      <path class="cls-10" d="M95.1,37.3c.25,0,.51,0,.76,0,.09,0,.12.03.12.12,0,.46,0,.91,0,1.37,0,.12,0,.12-.13.12-.51,0-1.02,0-1.53,0-.09,0-.12-.02-.12-.12,0-.46,0-.92,0-1.39,0-.09.04-.11.11-.11.26,0,.52,0,.78,0Z"/>
      <path class="cls-10" d="M114.08,40.96c-.67,0-1.19-.53-1.19-1.19,0-.67.54-1.2,1.21-1.19.66,0,1.19.54,1.18,1.2,0,.66-.53,1.18-1.2,1.18ZM115.04,39.77c0-.53-.44-.97-.96-.96-.53,0-.95.43-.95.97,0,.54.43.97.95.96.53,0,.95-.43.95-.97Z"/>
      <path class="cls-10" d="M114.68,40.47c-.11,0-.2,0-.29,0-.06,0-.09-.05-.12-.09-.07-.11-.13-.23-.2-.34-.02-.04-.05-.08-.11-.06-.05.02-.03.07-.03.11,0,.1,0,.21,0,.31,0,.05-.02.08-.07.08-.02,0-.03,0-.05,0-.23,0-.19,0-.19-.18,0-.35,0-.71,0-1.06,0-.12,0-.13.12-.13.17,0,.34,0,.5,0,.2.01.33.11.38.27.06.19,0,.38-.17.49-.08.05-.08.09-.03.16.09.13.18.27.25.44ZM113.92,39.52s0,.07,0,.1c0,.03.01.06.05.06.1,0,.2.02.29-.03.06-.03.07-.09.07-.15,0-.06-.04-.11-.11-.12-.04,0-.09-.01-.14-.01-.15,0-.16,0-.16.15Z"/>
      <g>
        <path class="cls-4" d="M45.27,52.98c-.14-.08-.31-.12-.45-.19-.42-.2-.82-.45-1.23-.69-.72-.41-1.44-.82-2.15-1.23-.69-.4-1.4-.77-2.07-1.21-.81-.54-1.34-1.3-1.62-2.24-.11-.36-.15-.73-.15-1.11,0-1.83,0-3.66,0-5.49,0-1.23.48-2.24,1.38-3.06.23-.21.5-.38.77-.53.99-.57,1.99-1.14,2.98-1.71.64-.36,1.28-.73,1.92-1.09.38-.21.79-.33,1.22-.4.03,0,.05-.02.08-.03.22,0,.43-.01.65-.01.71,0,1.36.2,1.98.55.65.37,1.29.74,1.93,1.11.99.57,1.99,1.13,2.97,1.71.73.43,1.26,1.06,1.6,1.84.24.55.34,1.12.33,1.72,0,1.79,0,3.57,0,5.36,0,1.17-.43,2.16-1.26,2.98-.28.28-.61.49-.95.68-.66.38-1.33.76-1.99,1.14-.9.51-1.79,1.03-2.69,1.53-.89.5-1.84.65-2.84.45-.14-.03-.27-.08-.41-.09ZM53.76,43.57c0-.82,0-1.63,0-2.45,0-.31-.05-.61-.14-.9-.24-.74-.71-1.29-1.38-1.68-.54-.31-1.07-.61-1.61-.92-.86-.49-1.72-.99-2.58-1.48-.4-.23-.82-.38-1.28-.41-.55-.04-1.07.04-1.55.29-.46.24-.9.5-1.35.76-1.02.58-2.05,1.17-3.07,1.76-1.01.58-1.53,1.46-1.54,2.62-.02,1.6,0,3.21,0,4.81,0,.2.02.41.06.61.18.87.65,1.53,1.41,1.99.23.14.47.27.71.41,1.17.67,2.35,1.35,3.52,2.02,1.01.57,2.03.59,3.05.03.47-.25.93-.53,1.39-.79.9-.52,1.81-1.04,2.71-1.55.35-.2.67-.42.93-.73.48-.56.72-1.21.72-1.95,0-.81,0-1.62,0-2.43Z"/>
        <path class="cls-4" d="M48.66,44.39c-.93,0-1.86,0-2.79,0-.26,0-.48-.08-.65-.27-.21-.24-.28-.52-.16-.82.12-.32.36-.5.7-.54.06,0,.12,0,.19,0,1.27,0,2.54,0,3.81,0,.21,0,.22,0,.15-.21-.25-.78-.72-1.39-1.38-1.86-.48-.33-1.01-.54-1.58-.61-.77-.09-1.5.05-2.18.44-.82.48-1.39,1.17-1.66,2.09-.32,1.08-.12,2.09.52,3.01.4.58.93,1,1.59,1.25.72.27,1.46.32,2.2.12.61-.17,1.14-.46,1.59-.91.06-.06.12-.09.21-.09.58,0,1.17,0,1.75,0,.02,0,.05,0,.07,0,.04,0,.06.03.05.07-.01.03-.03.06-.05.09-.51.87-1.21,1.53-2.1,2-.92.48-1.9.68-2.93.59-1.02-.09-1.94-.47-2.75-1.11-.62-.49-1.1-1.09-1.45-1.8-.36-.74-.54-1.52-.51-2.33.04-1.24.46-2.33,1.26-3.28.72-.86,1.65-1.39,2.73-1.65.64-.15,1.29-.19,1.94-.1,1.26.17,2.3.74,3.15,1.67.69.75,1.12,1.63,1.29,2.64.08.5.09,1,.01,1.51-.02.13-.02.13-.15.13-.32,0-.64,0-.95,0-.64,0-1.28,0-1.92,0Z"/>
      </g>
    </g>
    <g>
      <path class="cls-9" d="M37.6,126.77h74.76c1.61,0,2.91,1.31,2.91,2.91v12.78H40.52c-1.61,0-2.91-1.31-2.91-2.91v-12.78h0Z"/>
      <g>
        <path class="cls-4" d="M44.88,137.35v-5.48h3.54v1.07h-2.28v1.11h2.12v1.06h-2.12v2.24h-1.26Z"/>
        <path class="cls-4" d="M54.84,134.62c0,1.77-1.11,2.83-2.8,2.83s-2.77-1.06-2.77-2.83,1.13-2.84,2.78-2.84,2.79,1.1,2.79,2.84ZM53.51,134.62c0-1.1-.55-1.8-1.46-1.8s-1.47.7-1.47,1.8.55,1.75,1.47,1.75,1.46-.68,1.46-1.75Z"/>
        <path class="cls-4" d="M57.22,137.35h-1.25v-5.48h2.02c.64,0,1.09.07,1.48.34.4.3.62.75.62,1.28,0,.95-.57,1.46-1.21,1.67l1.37,2.19h-1.41l-1.16-1.98h-.47v1.98ZM57.22,134.37h.7c.59,0,.94-.23.94-.72,0-.52-.36-.71-1.03-.71h-.62v1.43Z"/>
        <path class="cls-4" d="M63.3,137.35v-5.48h1.26v5.48h-1.26Z"/>
        <path class="cls-4" d="M70.73,137.35h-1.6l-1.19-2.3c-.38-.74-.68-1.35-.8-1.68h0c.02.44.02,1.17.02,1.74v2.24h-1.16v-5.48h1.62l1.39,2.74c.28.55.46,1,.58,1.26h0c-.02-.46-.02-1-.02-1.59v-2.42h1.16v5.48Z"/>
        <path class="cls-4" d="M73.43,137.35c-.55-1.59-1.4-4.17-1.83-5.48h1.39l.87,2.93c.16.57.21.8.36,1.39h.02c.15-.56.2-.84.38-1.41l.87-2.91h1.31c-.25.77-.71,2.14-1.1,3.32l-.73,2.16h-1.54Z"/>
        <path class="cls-4" d="M78.91,136.28h2.39v1.07h-3.63v-5.48h3.6v1.07h-2.36v1.11h2.17v1.06h-2.17v1.16Z"/>
        <path class="cls-4" d="M83.42,135.69c.08.5.4.75.97.75.51,0,.84-.25.84-.64s-.28-.47-.87-.64l-.38-.11c-1.2-.34-1.69-.79-1.69-1.65,0-.97.82-1.64,2.07-1.64s1.98.58,2.05,1.65h-1.26c-.08-.42-.34-.65-.83-.65-.46,0-.71.22-.71.55,0,.37.25.48.68.6l.42.12c1.24.34,1.82.72,1.82,1.69,0,1.05-.87,1.71-2.19,1.71s-2.15-.66-2.2-1.76h1.29Z"/>
        <path class="cls-4" d="M88.68,137.35v-4.4h-1.45v-1.08h4.15v1.08h-1.45v4.4h-1.26Z"/>
        <path class="cls-4" d="M97.58,134.62c0,1.77-1.11,2.83-2.8,2.83s-2.77-1.06-2.77-2.83,1.13-2.84,2.78-2.84,2.79,1.1,2.79,2.84ZM96.25,134.62c0-1.1-.55-1.8-1.46-1.8s-1.47.7-1.47,1.8.55,1.75,1.47,1.75,1.46-.68,1.46-1.75Z"/>
        <path class="cls-4" d="M99.96,137.35h-1.25v-5.48h2.02c.64,0,1.09.07,1.48.34.4.3.62.75.62,1.28,0,.95-.57,1.46-1.21,1.67l1.37,2.19h-1.41l-1.16-1.98h-.47v1.98ZM99.96,134.37h.7c.59,0,.94-.23.94-.72,0-.52-.36-.71-1.03-.71h-.62v1.43Z"/>
        <path class="cls-4" d="M104.9,135.69c.08.5.4.75.97.75.51,0,.84-.25.84-.64s-.28-.47-.87-.64l-.38-.11c-1.2-.34-1.69-.79-1.69-1.65,0-.97.82-1.64,2.07-1.64s1.98.58,2.04,1.65h-1.26c-.08-.42-.34-.65-.83-.65-.46,0-.71.22-.71.55,0,.37.25.48.68.6l.42.12c1.24.34,1.82.72,1.82,1.69,0,1.05-.87,1.71-2.19,1.71s-2.15-.66-2.2-1.76h1.29Z"/>
      </g>
    </g>
    <g>
      <rect class="cls-8" x="37.6" y="105.69" width="77.67" height="15.69" rx="2.91" ry="2.91"/>
      <g>
        <path class="cls-11" d="M64.95,114.51c.07.46.36.69.88.69.47,0,.77-.22.77-.58s-.26-.43-.8-.58l-.34-.1c-1.1-.31-1.55-.72-1.55-1.51,0-.89.75-1.5,1.89-1.5s1.81.53,1.87,1.51h-1.15c-.08-.39-.31-.6-.76-.6-.42,0-.65.2-.65.5,0,.34.23.44.62.55l.38.11c1.13.32,1.67.66,1.67,1.55,0,.96-.8,1.56-2,1.56s-1.96-.6-2.01-1.61h1.18Z"/>
        <path class="cls-11" d="M68.96,116.03c.45-1.2,1.19-3.17,1.92-5.01h1.38c.6,1.6,1.27,3.43,1.87,5.01h-1.2c-.15-.4-.29-.77-.44-1.18h-1.89l-.45,1.18h-1.18ZM72.17,113.94c-.26-.82-.45-1.35-.63-1.96h-.01c-.17.62-.41,1.3-.62,1.96h1.27Z"/>
        <path class="cls-11" d="M75.66,116.03v-5.01h3.24v.98h-2.09v1.02h1.94v.97h-1.94v2.05h-1.15Z"/>
        <path class="cls-11" d="M81.87,115.05h2.19v.98h-3.32v-5.01h3.29v.98h-2.16v1.02h1.98v.97h-1.98v1.06Z"/>
        <path class="cls-11" d="M85.65,112.57c.02-1.01.66-1.64,1.76-1.64s1.7.62,1.7,1.41c0,.53-.24.91-.68,1.27l-.06.05c-.39.32-.54.48-.54.92h-.99c0-.67.12-.91.55-1.31l.27-.25c.19-.17.32-.38.32-.66,0-.31-.22-.55-.6-.55-.44,0-.64.28-.64.76h-1.1ZM87.91,116.03h-1.14v-1.04h1.14v1.04Z"/>
      </g>
    </g>
    <g>
      <rect class="cls-8" x="37.6" y="63.9" width="77.67" height="15.69" rx="2.91" ry="2.91"/>
      <g>
        <path class="cls-11" d="M55.65,74.12v-5.01h1.15v5.01h-1.15Z"/>
        <path class="cls-11" d="M59.75,72.6c.07.46.36.69.88.69.47,0,.77-.22.77-.58s-.26-.43-.8-.58l-.34-.1c-1.1-.31-1.55-.72-1.55-1.51,0-.89.75-1.5,1.89-1.5s1.81.53,1.87,1.51h-1.15c-.08-.39-.31-.6-.76-.6-.42,0-.65.2-.65.5,0,.34.23.44.62.55l.38.11c1.13.32,1.67.66,1.67,1.55,0,.96-.8,1.56-2,1.56s-1.96-.6-2.01-1.61h1.18Z"/>
        <path class="cls-11" d="M68.21,73.14h2.19v.98h-3.32v-5.01h3.29v.98h-2.16v1.02h1.98v.97h-1.98v1.06Z"/>
        <path class="cls-11" d="M77.06,71.62c0,.81-.25,1.44-.69,1.89l.92.96h-1.37l-.41-.42c-.31.1-.64.16-1,.16-1.52,0-2.54-.97-2.54-2.59s1.02-2.6,2.54-2.6,2.56,1.01,2.56,2.6ZM75.25,72.33l.33.34c.18-.27.27-.62.27-1.05,0-1.01-.5-1.65-1.34-1.65s-1.34.64-1.34,1.65.5,1.6,1.34,1.6c.06,0,.12,0,.17,0l-.83-.86,1.39-.02Z"/>
        <path class="cls-11" d="M81.72,72.06v-2.95h1.15v2.98c0,.64-.13,1.08-.39,1.42-.34.45-.88.69-1.62.69s-1.27-.23-1.62-.69c-.26-.34-.39-.78-.39-1.42v-2.98h1.15v2.95c0,.78.3,1.16.86,1.16s.86-.38.86-1.16Z"/>
        <path class="cls-11" d="M84.92,74.12v-5.01h1.15v5.01h-1.15Z"/>
        <path class="cls-11" d="M89.14,74.12v-4.02h-1.32v-.99h3.8v.99h-1.32v4.02h-1.15Z"/>
        <path class="cls-11" d="M95.58,72.24v1.88h-1.15v-1.88l-.6-1.14c-.34-.64-.74-1.44-1.04-1.99h1.28c.33.7.65,1.4.96,2.07h.01c.2-.5.5-1.11.95-2.07h1.23l-1.65,3.13Z"/>
      </g>
    </g>
    <g>
      <rect class="cls-8" x="37.6" y="84.85" width="77.67" height="15.69" rx="2.91" ry="2.91"/>
      <g>
        <path class="cls-11" d="M45.79,93.63c-.33,1.06-1.18,1.66-2.4,1.66-1.52,0-2.54-.97-2.54-2.59s1.04-2.6,2.55-2.6c1.23,0,2.09.64,2.4,1.72h-1.25c-.22-.48-.6-.76-1.16-.76-.84,0-1.34.64-1.34,1.65s.5,1.6,1.34,1.6c.53,0,.89-.25,1.11-.67h1.28Z"/>
        <path class="cls-11" d="M48.68,95.2h-1.14v-5.01h1.85c.59,0,.99.06,1.35.31.36.27.57.69.57,1.17,0,.87-.52,1.34-1.11,1.53l1.25,2h-1.29l-1.06-1.81h-.43v1.81ZM48.68,92.48h.64c.54,0,.86-.21.86-.66,0-.48-.33-.65-.94-.65h-.57v1.31Z"/>
        <path class="cls-11" d="M57.96,92.7c0,1.62-1.02,2.59-2.56,2.59s-2.54-.97-2.54-2.59,1.03-2.6,2.54-2.6,2.55,1.01,2.55,2.6ZM56.75,92.71c0-1.01-.5-1.65-1.34-1.65s-1.34.64-1.34,1.65.5,1.6,1.34,1.6,1.34-.62,1.34-1.6Z"/>
        <path class="cls-11" d="M65.93,90.19c-.34,1.68-.69,3.33-1.02,5.01h-1.51l-.52-2.84c-.09-.45-.1-.66-.18-1.18h-.02c-.08.53-.1.66-.19,1.15l-.55,2.88h-1.53l-1.02-5.01h1.16c.14.78.25,1.55.38,2.34l.1.55c.08.48.08.6.16,1.13h.03c.09-.67.13-.78.29-1.68l.46-2.34h1.48l.41,2.23c.14.75.25,1.39.29,1.81h.03c.06-.48.08-.67.18-1.14l.5-2.89h1.06Z"/>
        <path class="cls-11" d="M67.62,90.19h1.25c.23,0,.48,0,.72,0,1.48.06,2.44.95,2.44,2.48,0,.86-.39,1.76-1.02,2.1-.56.39-1.24.42-2.16.42h-1.23v-5.01ZM68.77,94.23h.39c.3,0,.55-.03.75-.09.59-.18.9-.63.9-1.45,0-.78-.31-1.25-.9-1.44-.18-.06-.41-.09-.68-.09h-.46v3.07Z"/>
        <path class="cls-11" d="M73.87,95.2v-5.01h3.24v.98h-2.09v1.02h1.94v.97h-1.94v2.05h-1.15Z"/>
        <path class="cls-11" d="M81.77,93.14v-2.95h1.15v2.98c0,.64-.13,1.08-.39,1.42-.34.45-.88.69-1.62.69s-1.27-.23-1.62-.69c-.26-.34-.39-.78-.39-1.42v-2.98h1.15v2.95c0,.78.3,1.16.86,1.16s.86-.38.86-1.16Z"/>
        <path class="cls-11" d="M89.31,95.2h-1.46l-1.09-2.1c-.34-.67-.62-1.23-.74-1.53h0c.02.41.01,1.07.01,1.59v2.05h-1.06v-5.01h1.48l1.27,2.51c.25.5.42.91.53,1.16h0c-.02-.42-.02-.91-.02-1.45v-2.21h1.06v5.01Z"/>
        <path class="cls-11" d="M91.42,90.19h1.25c.23,0,.48,0,.72,0,1.48.06,2.44.95,2.44,2.48,0,.86-.39,1.76-1.02,2.1-.56.39-1.24.42-2.16.42h-1.23v-5.01ZM92.57,94.23h.39c.3,0,.55-.03.75-.09.59-.18.9-.63.9-1.45,0-.78-.31-1.25-.9-1.44-.18-.06-.41-.09-.68-.09h-.46v3.07Z"/>
        <path class="cls-11" d="M97.66,95.2v-5.01h1.15v5.01h-1.15Z"/>
        <path class="cls-11" d="M105.25,95.2h-1.46l-1.09-2.1c-.34-.67-.62-1.23-.74-1.53h0c.02.41.01,1.07.01,1.59v2.05h-1.06v-5.01h1.48l1.27,2.51c.25.5.42.91.53,1.16h0c-.02-.42-.02-.91-.02-1.45v-2.21h1.06v5.01Z"/>
        <path class="cls-11" d="M112.03,91.82h-1.25c-.22-.48-.58-.76-1.15-.76-.85,0-1.35.67-1.35,1.62s.51,1.65,1.38,1.65c.76,0,1.13-.43,1.24-.96-.22,0-.41,0-.64,0h-.9v-.93h2.68v2.76h-1.07v-.27c0-.11,0-.2,0-.28h0c-.28.36-.82.64-1.55.64-1.37,0-2.33-1.05-2.33-2.6s1.01-2.59,2.57-2.59c1.23,0,2.07.64,2.38,1.72Z"/>
      </g>
    </g>
  </g>
  <g>
    <g>
      <g>
        <path class="cls-5" d="M9.8,180.75c0-1.06.83-1.92,1.86-1.92s1.86.86,1.86,1.92c0,1.06-.83,1.92-1.86,1.92-1.03,0-1.86-.86-1.86-1.92Z"/>
        <path class="cls-5" d="M9.8,173.01c0-1.06.83-1.92,1.86-1.92,1.03,0,1.86.86,1.86,1.92,0,1.06-.83,1.92-1.86,1.92-1.03,0-1.86-.86-1.86-1.92Z"/>
        <path class="cls-5" d="M9.8,165.37c0-1.06.83-1.92,1.86-1.92,1.03,0,1.86.86,1.86,1.92s-.83,1.92-1.86,1.92c-1.03,0-1.86-.86-1.86-1.92Z"/>
        <path class="cls-5" d="M9.8,157.72c0-1.06.83-1.92,1.86-1.92,1.03,0,1.86.86,1.86,1.92,0,1.06-.83,1.92-1.86,1.92-1.03,0-1.86-.86-1.86-1.92Z"/>
        <path class="cls-5" d="M3.21,164.96s0-.02,0-.03c0,.01,0,.02,0,.04h0ZM3.46,162.57c-.81.41-1.68,1.11-1.72,2.36-.04,1.21,1.38,1.23,1.47.06,0,0,0,0,0,0,0,.03.2-.27.11-.18.28-.28.57-.43.89-.56.93-.4,1.92-.51,2.9-.52v-1.91c-1.22,0-2.5.17-3.65.75Z"/>
        <path class="cls-5" d="M3.21,172.61s0-.02,0-.03c0,.01,0,.02,0,.03h0ZM3.46,170.21c-.81.41-1.68,1.11-1.72,2.36-.04,1.21,1.38,1.23,1.47.06,0,0,0,0,0,0,0,.03.2-.27.11-.18.28-.28.57-.43.89-.56.93-.4,1.92-.51,2.9-.52v-1.91c-1.22,0-2.5.17-3.65.75Z"/>
        <path class="cls-5" d="M3.21,180.26s0-.02,0-.03c0,.01,0,.02,0,.03h0ZM3.46,177.86c-.81.41-1.68,1.11-1.72,2.37-.04,1.21,1.38,1.23,1.47.06,0,0,0,0,0,0,0,.03.2-.27.11-.18.28-.28.57-.42.89-.56.93-.4,1.92-.51,2.9-.52v-1.91c-1.22,0-2.5.17-3.65.75Z"/>
        <path class="cls-5" d="M3.21,157.32s0-.02,0-.03c0,.01,0,.02,0,.04h0ZM3.46,154.92c-.81.41-1.68,1.11-1.72,2.36-.04,1.21,1.38,1.23,1.47.06,0,0,0,0,0,0,0,.03.2-.27.11-.18.28-.28.57-.42.89-.56.93-.4,1.92-.51,2.9-.52v-1.91c-1.22,0-2.5.17-3.65.75Z"/>
        <path class="cls-6" d="M11,165.37c0,.22.04-.22,0,0,.05-.22.01-.05-.02.02.11-.24-.2.22-.08.11-.28.28-.57.43-.89.56-.93.4-1.92.51-2.9.52-.98,0-1.96-.14-2.9-.52-.31-.13-.56-.27-.84-.51-.04-.03-.09-.08-.19-.24.11.17.01,0,0-.05.04.13.05.14.02.04.01.15.01.17,0,.06-.04-1.23-1.51-1.23-1.47,0,.04,1.27.91,1.93,1.72,2.36,1.13.6,2.44.75,3.65.75,1.22,0,2.5-.18,3.65-.75.81-.41,1.68-1.11,1.72-2.36.04-1.23-1.43-1.23-1.47,0Z"/>
        <path class="cls-6" d="M11,173.01c0,.22.04-.22,0,0,.05-.22.01-.05-.02.02.11-.24-.2.23-.08.11-.28.28-.57.43-.89.56-.93.4-1.92.51-2.9.52-.98,0-1.96-.14-2.9-.52-.31-.12-.56-.27-.84-.51-.04-.03-.09-.08-.19-.24.11.17.01,0,0-.04.04.13.05.14.02.04.01.15.01.17,0,.06-.04-1.23-1.51-1.23-1.47,0,.04,1.27.91,1.93,1.72,2.36,1.13.61,2.44.75,3.65.75,1.22,0,2.5-.18,3.65-.75.81-.41,1.68-1.11,1.72-2.36.04-1.23-1.43-1.23-1.47,0Z"/>
        <path class="cls-6" d="M11,180.66c0,.22.04-.22,0,0,.05-.22.01-.05-.02.02.11-.24-.2.22-.08.11-.28.28-.57.42-.89.56-.93.4-1.92.51-2.9.52-.98,0-1.96-.14-2.9-.52-.31-.13-.56-.27-.84-.51-.04-.03-.09-.08-.19-.24.11.17.01,0,0-.04.04.13.05.14.02.04.01.15.01.17,0,.07-.04-1.23-1.51-1.23-1.47,0,.04,1.27.91,1.93,1.72,2.36,1.13.6,2.44.74,3.65.75,1.22,0,2.5-.18,3.65-.75.81-.41,1.68-1.11,1.72-2.36.04-1.23-1.43-1.23-1.47,0Z"/>
        <path class="cls-6" d="M11,157.72c0,.22.04-.22,0,0,.05-.22.01-.05-.02.02.11-.24-.2.23-.08.11-.28.28-.57.43-.89.56-.93.4-1.92.51-2.9.52-.98,0-1.96-.14-2.9-.52-.31-.13-.56-.27-.84-.51-.04-.03-.09-.08-.19-.24.11.17.01,0,0-.05.04.13.05.14.02.04.01.15.01.17,0,.06-.04-1.23-1.51-1.23-1.47,0,.04,1.27.91,1.93,1.72,2.36,1.13.61,2.44.75,3.65.75,1.22,0,2.5-.18,3.65-.75.81-.41,1.68-1.11,1.72-2.36.04-1.23-1.43-1.23-1.47,0Z"/>
      </g>
      <g>
        <path class="cls-5" d="M9.8,150.42c0-1.06.83-1.92,1.86-1.92s1.86.86,1.86,1.92c0,1.06-.83,1.92-1.86,1.92-1.03,0-1.86-.86-1.86-1.92Z"/>
        <path class="cls-5" d="M9.8,142.68c0-1.06.83-1.92,1.86-1.92,1.03,0,1.86.86,1.86,1.92,0,1.06-.83,1.92-1.86,1.92-1.03,0-1.86-.86-1.86-1.92Z"/>
        <path class="cls-5" d="M9.8,135.03c0-1.06.83-1.92,1.86-1.92,1.03,0,1.86.86,1.86,1.92s-.83,1.92-1.86,1.92c-1.03,0-1.86-.86-1.86-1.92Z"/>
        <path class="cls-5" d="M9.8,127.39c0-1.06.83-1.92,1.86-1.92,1.03,0,1.86.86,1.86,1.92,0,1.06-.83,1.92-1.86,1.92-1.03,0-1.86-.86-1.86-1.92Z"/>
        <path class="cls-5" d="M3.21,134.63s0-.02,0-.03c0,.01,0,.02,0,.04h0ZM3.46,132.23c-.81.41-1.68,1.11-1.72,2.36-.04,1.21,1.38,1.23,1.47.06,0,0,0,0,0,0,0,.03.2-.27.11-.18.28-.28.57-.43.89-.56.93-.4,1.92-.51,2.9-.52v-1.91c-1.22,0-2.5.17-3.65.75Z"/>
        <path class="cls-5" d="M3.21,142.28s0-.02,0-.03c0,.01,0,.02,0,.03h0ZM3.46,139.88c-.81.41-1.68,1.11-1.72,2.36-.04,1.21,1.38,1.23,1.47.06,0,0,0,0,0,0,0,.03.2-.27.11-.18.28-.28.57-.43.89-.56.93-.4,1.92-.51,2.9-.52v-1.91c-1.22,0-2.5.17-3.65.75Z"/>
        <path class="cls-5" d="M3.21,149.92s0-.02,0-.03c0,.01,0,.02,0,.03h0ZM3.46,147.53c-.81.41-1.68,1.11-1.72,2.37-.04,1.21,1.38,1.23,1.47.06,0,0,0,0,0,0,0,.03.2-.27.11-.18.28-.28.57-.42.89-.56.93-.4,1.92-.51,2.9-.52v-1.91c-1.22,0-2.5.17-3.65.75Z"/>
        <path class="cls-5" d="M3.21,126.99s0-.02,0-.03c0,.01,0,.02,0,.04h0ZM3.46,124.59c-.81.41-1.68,1.11-1.72,2.36-.04,1.21,1.38,1.23,1.47.06,0,0,0,0,0,0,0,.03.2-.27.11-.18.28-.28.57-.42.89-.56.93-.4,1.92-.51,2.9-.52v-1.91c-1.22,0-2.5.17-3.65.75Z"/>
        <path class="cls-6" d="M11,135.03c0,.22.04-.22,0,0,.05-.22.01-.05-.02.02.11-.24-.2.22-.08.11-.28.28-.57.43-.89.56-.93.4-1.92.51-2.9.52-.98,0-1.96-.14-2.9-.52-.31-.13-.56-.27-.84-.51-.04-.03-.09-.08-.19-.24.11.17.01,0,0-.05.04.13.05.14.02.04.01.15.01.17,0,.06-.04-1.23-1.51-1.23-1.47,0,.04,1.27.91,1.93,1.72,2.36,1.13.6,2.44.75,3.65.75,1.22,0,2.5-.18,3.65-.75.81-.41,1.68-1.11,1.72-2.36.04-1.23-1.43-1.23-1.47,0Z"/>
        <path class="cls-6" d="M11,142.68c0,.22.04-.22,0,0,.05-.22.01-.05-.02.02.11-.24-.2.23-.08.11-.28.28-.57.43-.89.56-.93.4-1.92.51-2.9.52-.98,0-1.96-.14-2.9-.52-.31-.12-.56-.27-.84-.51-.04-.03-.09-.08-.19-.24.11.17.01,0,0-.04.04.13.05.14.02.04.01.15.01.17,0,.06-.04-1.23-1.51-1.23-1.47,0,.04,1.27.91,1.93,1.72,2.36,1.13.61,2.44.75,3.65.75,1.22,0,2.5-.18,3.65-.75.81-.41,1.68-1.11,1.72-2.36.04-1.23-1.43-1.23-1.47,0Z"/>
        <path class="cls-6" d="M11,150.32c0,.22.04-.22,0,0,.05-.22.01-.05-.02.02.11-.24-.2.22-.08.11-.28.28-.57.42-.89.56-.93.4-1.92.51-2.9.52-.98,0-1.96-.14-2.9-.52-.31-.13-.56-.27-.84-.51-.04-.03-.09-.08-.19-.24.11.17.01,0,0-.04.04.13.05.14.02.04.01.15.01.17,0,.07-.04-1.23-1.51-1.23-1.47,0,.04,1.27.91,1.93,1.72,2.36,1.13.6,2.44.74,3.65.75,1.22,0,2.5-.18,3.65-.75.81-.41,1.68-1.11,1.72-2.36.04-1.23-1.43-1.23-1.47,0Z"/>
        <path class="cls-6" d="M11,127.39c0,.22.04-.22,0,0,.05-.22.01-.05-.02.02.11-.24-.2.23-.08.11-.28.28-.57.43-.89.56-.93.4-1.92.51-2.9.52-.98,0-1.96-.14-2.9-.52-.31-.13-.56-.27-.84-.51-.04-.03-.09-.08-.19-.24.11.17.01,0,0-.05.04.13.05.14.02.04.01.15.01.17,0,.06-.04-1.23-1.51-1.23-1.47,0,.04,1.27.91,1.93,1.72,2.36,1.13.61,2.44.75,3.65.75,1.22,0,2.5-.18,3.65-.75.81-.41,1.68-1.11,1.72-2.36.04-1.23-1.43-1.23-1.47,0Z"/>
      </g>
      <g>
        <path class="cls-5" d="M9.8,120.08c0-1.06.83-1.92,1.86-1.92,1.03,0,1.86.86,1.86,1.92,0,1.06-.83,1.92-1.86,1.92-1.03,0-1.86-.86-1.86-1.92Z"/>
        <path class="cls-5" d="M9.8,112.35c0-1.06.83-1.92,1.86-1.92,1.03,0,1.86.86,1.86,1.92,0,1.06-.83,1.92-1.86,1.92-1.03,0-1.86-.86-1.86-1.92Z"/>
        <path class="cls-5" d="M9.8,104.7c0-1.06.83-1.92,1.86-1.92,1.03,0,1.86.86,1.86,1.92s-.83,1.92-1.86,1.92c-1.03,0-1.86-.86-1.86-1.92Z"/>
        <path class="cls-5" d="M9.8,97.05c0-1.06.83-1.92,1.86-1.92,1.03,0,1.86.86,1.86,1.92,0,1.06-.83,1.92-1.86,1.92-1.03,0-1.86-.86-1.86-1.92Z"/>
        <path class="cls-5" d="M3.21,104.3s0-.02,0-.03c0,.01,0,.02,0,.04h0ZM3.46,101.9c-.81.41-1.68,1.11-1.72,2.36-.04,1.21,1.38,1.23,1.47.06,0,0,0,0,0,0,0,.03.2-.27.11-.18.28-.28.57-.43.89-.56.93-.4,1.92-.51,2.9-.52v-1.91c-1.22,0-2.5.17-3.65.75Z"/>
        <path class="cls-5" d="M3.21,111.94s0-.02,0-.03c0,.01,0,.02,0,.03h0ZM3.46,109.55c-.81.41-1.68,1.11-1.72,2.36-.04,1.21,1.38,1.23,1.47.06,0,0,0,0,0,0,0,.03.2-.27.11-.18.28-.28.57-.43.89-.56.93-.4,1.92-.51,2.9-.52v-1.91c-1.22,0-2.5.17-3.65.75Z"/>
        <path class="cls-5" d="M3.21,119.59s0-.02,0-.03c0,.01,0,.02,0,.03h0ZM3.46,117.19c-.81.41-1.68,1.11-1.72,2.37-.04,1.21,1.38,1.23,1.47.06,0,0,0,0,0,0,0,.03.2-.27.11-.18.28-.28.57-.42.89-.56.93-.4,1.92-.51,2.9-.52v-1.91c-1.22,0-2.5.17-3.65.75Z"/>
        <path class="cls-5" d="M3.21,96.65s0-.02,0-.03c0,.01,0,.02,0,.04h0ZM3.46,94.25c-.81.41-1.68,1.11-1.72,2.36-.04,1.21,1.38,1.23,1.47.06,0,0,0,0,0,0,0,.03.2-.27.11-.18.28-.28.57-.42.89-.56.93-.4,1.92-.51,2.9-.52v-1.91c-1.22,0-2.5.17-3.65.75Z"/>
        <path class="cls-6" d="M11,104.7c0,.22.04-.22,0,0,.05-.22.01-.05-.02.02.11-.24-.2.22-.08.11-.28.28-.57.43-.89.56-.93.4-1.92.51-2.9.52-.98,0-1.96-.14-2.9-.52-.31-.13-.56-.27-.84-.51-.04-.03-.09-.08-.19-.24.11.17.01,0,0-.05.04.13.05.14.02.04.01.15.01.17,0,.06-.04-1.23-1.51-1.23-1.47,0,.04,1.27.91,1.93,1.72,2.36,1.13.6,2.44.75,3.65.75,1.22,0,2.5-.18,3.65-.75.81-.41,1.68-1.11,1.72-2.36.04-1.23-1.43-1.23-1.47,0Z"/>
        <path class="cls-6" d="M11,112.34c0,.22.04-.22,0,0,.05-.22.01-.05-.02.02.11-.24-.2.23-.08.11-.28.28-.57.43-.89.56-.93.4-1.92.51-2.9.52-.98,0-1.96-.14-2.9-.52-.31-.12-.56-.27-.84-.51-.04-.03-.09-.08-.19-.24.11.17.01,0,0-.04.04.13.05.14.02.04.01.15.01.17,0,.06-.04-1.23-1.51-1.23-1.47,0,.04,1.27.91,1.93,1.72,2.36,1.13.61,2.44.75,3.65.75,1.22,0,2.5-.18,3.65-.75.81-.41,1.68-1.11,1.72-2.36.04-1.23-1.43-1.23-1.47,0Z"/>
        <path class="cls-6" d="M11,119.99c0,.22.04-.22,0,0,.05-.22.01-.05-.02.02.11-.24-.2.22-.08.11-.28.28-.57.42-.89.56-.93.4-1.92.51-2.9.52-.98,0-1.96-.14-2.9-.52-.31-.13-.56-.27-.84-.51-.04-.03-.09-.08-.19-.24.11.17.01,0,0-.04.04.13.05.14.02.04.01.15.01.17,0,.07-.04-1.23-1.51-1.23-1.47,0,.04,1.27.91,1.93,1.72,2.36,1.13.6,2.44.74,3.65.75,1.22,0,2.5-.18,3.65-.75.81-.41,1.68-1.11,1.72-2.36.04-1.23-1.43-1.23-1.47,0Z"/>
        <path class="cls-6" d="M11,97.05c0,.22.04-.22,0,0,.05-.22.01-.05-.02.02.11-.24-.2.23-.08.11-.28.28-.57.43-.89.56-.93.4-1.92.51-2.9.52-.98,0-1.96-.14-2.9-.52-.31-.13-.56-.27-.84-.51-.04-.03-.09-.08-.19-.24.11.17.01,0,0-.05.04.13.05.14.02.04.01.15.01.17,0,.06-.04-1.23-1.51-1.23-1.47,0,.04,1.27.91,1.93,1.72,2.36,1.13.61,2.44.75,3.65.75,1.22,0,2.5-.18,3.65-.75.81-.41,1.68-1.11,1.72-2.36.04-1.23-1.43-1.23-1.47,0Z"/>
      </g>
    </g>
    <g>
      <g>
        <path class="cls-5" d="M9.8,97.23c0-1.06.83-1.92,1.86-1.92,1.03,0,1.86.86,1.86,1.92,0,1.06-.83,1.92-1.86,1.92-1.03,0-1.86-.86-1.86-1.92Z"/>
        <path class="cls-5" d="M9.8,89.49c0-1.06.83-1.92,1.86-1.92s1.86.86,1.86,1.92c0,1.06-.83,1.92-1.86,1.92-1.03,0-1.86-.86-1.86-1.92Z"/>
        <path class="cls-5" d="M9.8,81.85c0-1.06.83-1.92,1.86-1.92,1.03,0,1.86.86,1.86,1.92s-.83,1.92-1.86,1.92c-1.03,0-1.86-.86-1.86-1.92Z"/>
        <path class="cls-5" d="M9.8,74.2c0-1.06.83-1.92,1.86-1.92,1.03,0,1.86.86,1.86,1.92,0,1.06-.83,1.92-1.86,1.92-1.03,0-1.86-.86-1.86-1.92Z"/>
        <path class="cls-5" d="M3.21,81.45s0-.02,0-.03c0,.01,0,.02,0,.04h0ZM3.46,79.05c-.81.41-1.68,1.11-1.72,2.36-.04,1.21,1.38,1.23,1.47.06,0,0,0,0,0,0,0,.03.2-.27.11-.18.28-.28.57-.43.89-.56.93-.4,1.92-.51,2.9-.52v-1.91c-1.22,0-2.5.17-3.65.75Z"/>
        <path class="cls-5" d="M3.21,89.09s0-.02,0-.03c0,.01,0,.02,0,.03h0ZM3.46,86.7c-.81.41-1.68,1.11-1.72,2.36-.04,1.21,1.38,1.23,1.47.06,0,0,0,0,0,0,0,.03.2-.27.11-.18.28-.28.57-.43.89-.56.93-.4,1.92-.51,2.9-.52v-1.91c-1.22,0-2.5.17-3.65.75Z"/>
        <path class="cls-5" d="M3.21,96.74s0-.02,0-.03c0,.01,0,.02,0,.03h0ZM3.46,94.34c-.81.41-1.68,1.11-1.72,2.37-.04,1.21,1.38,1.23,1.47.06,0,0,0,0,0,0,0,.03.2-.27.11-.18.28-.28.57-.42.89-.56.93-.4,1.92-.51,2.9-.52v-1.91c-1.22,0-2.5.17-3.65.75Z"/>
        <path class="cls-5" d="M3.21,73.8s0-.02,0-.03c0,.01,0,.02,0,.04h0ZM3.46,71.4c-.81.41-1.68,1.11-1.72,2.36-.04,1.21,1.38,1.23,1.47.06,0,0,0,0,0,0,0,.03.2-.27.11-.18.28-.28.57-.42.89-.56.93-.4,1.92-.51,2.9-.52v-1.91c-1.22,0-2.5.17-3.65.75Z"/>
        <path class="cls-6" d="M11,81.85c0,.22.04-.22,0,0,.05-.22.01-.05-.02.02.11-.24-.2.22-.08.11-.28.28-.57.43-.89.56-.93.4-1.92.51-2.9.52-.98,0-1.96-.14-2.9-.52-.31-.13-.56-.27-.84-.51-.04-.03-.09-.08-.19-.24.11.17.01,0,0-.05.04.13.05.14.02.04.01.15.01.17,0,.06-.04-1.23-1.51-1.23-1.47,0,.04,1.27.91,1.93,1.72,2.36,1.13.6,2.44.75,3.65.75,1.22,0,2.5-.18,3.65-.75.81-.41,1.68-1.11,1.72-2.36.04-1.23-1.43-1.23-1.47,0Z"/>
        <path class="cls-6" d="M11,89.49c0,.22.04-.22,0,0,.05-.22.01-.05-.02.02.11-.24-.2.23-.08.11-.28.28-.57.43-.89.56-.93.4-1.92.51-2.9.52-.98,0-1.96-.14-2.9-.52-.31-.12-.56-.27-.84-.51-.04-.03-.09-.08-.19-.24.11.17.01,0,0-.04.04.13.05.14.02.04.01.15.01.17,0,.06-.04-1.23-1.51-1.23-1.47,0,.04,1.27.91,1.93,1.72,2.36,1.13.61,2.44.75,3.65.75,1.22,0,2.5-.18,3.65-.75.81-.41,1.68-1.11,1.72-2.36.04-1.23-1.43-1.23-1.47,0Z"/>
        <path class="cls-6" d="M11,97.14c0,.22.04-.22,0,0,.05-.22.01-.05-.02.02.11-.24-.2.22-.08.11-.28.28-.57.42-.89.56-.93.4-1.92.51-2.9.52-.98,0-1.96-.14-2.9-.52-.31-.13-.56-.27-.84-.51-.04-.03-.09-.08-.19-.24.11.17.01,0,0-.04.04.13.05.14.02.04.01.15.01.17,0,.07-.04-1.23-1.51-1.23-1.47,0,.04,1.27.91,1.93,1.72,2.36,1.13.6,2.44.74,3.65.75,1.22,0,2.5-.18,3.65-.75.81-.41,1.68-1.11,1.72-2.36.04-1.23-1.43-1.23-1.47,0Z"/>
        <path class="cls-6" d="M11,74.2c0,.22.04-.22,0,0,.05-.22.01-.05-.02.02.11-.24-.2.23-.08.11-.28.28-.57.43-.89.56-.93.4-1.92.51-2.9.52-.98,0-1.96-.14-2.9-.52-.31-.13-.56-.27-.84-.51-.04-.03-.09-.08-.19-.24.11.17.01,0,0-.05.04.13.05.14.02.04.01.15.01.17,0,.06-.04-1.23-1.51-1.23-1.47,0,.04,1.27.91,1.93,1.72,2.36,1.13.61,2.44.75,3.65.75,1.22,0,2.5-.18,3.65-.75.81-.41,1.68-1.11,1.72-2.36.04-1.23-1.43-1.23-1.47,0Z"/>
      </g>
      <g>
        <path class="cls-5" d="M9.8,66.9c0-1.06.83-1.92,1.86-1.92,1.03,0,1.86.86,1.86,1.92,0,1.06-.83,1.92-1.86,1.92s-1.86-.86-1.86-1.92Z"/>
        <path class="cls-5" d="M9.8,59.16c0-1.06.83-1.92,1.86-1.92,1.03,0,1.86.86,1.86,1.92,0,1.06-.83,1.92-1.86,1.92-1.03,0-1.86-.86-1.86-1.92Z"/>
        <path class="cls-5" d="M9.8,51.52c0-1.06.83-1.92,1.86-1.92,1.03,0,1.86.86,1.86,1.92s-.83,1.92-1.86,1.92c-1.03,0-1.86-.86-1.86-1.92Z"/>
        <path class="cls-5" d="M9.8,43.87c0-1.06.83-1.92,1.86-1.92,1.03,0,1.86.86,1.86,1.92,0,1.06-.83,1.92-1.86,1.92-1.03,0-1.86-.86-1.86-1.92Z"/>
        <path class="cls-5" d="M3.21,51.11s0-.02,0-.03c0,.01,0,.02,0,.04h0ZM3.46,48.72c-.81.41-1.68,1.11-1.72,2.36-.04,1.21,1.38,1.23,1.47.06,0,0,0,0,0,0,0,.03.2-.27.11-.18.28-.28.57-.43.89-.56.93-.4,1.92-.51,2.9-.52v-1.91c-1.22,0-2.5.17-3.65.75Z"/>
        <path class="cls-5" d="M3.21,58.76s0-.02,0-.03c0,.01,0,.02,0,.03h0ZM3.46,56.36c-.81.41-1.68,1.11-1.72,2.36-.04,1.21,1.38,1.23,1.47.06,0,0,0,0,0,0,0,.03.2-.27.11-.18.28-.28.57-.43.89-.56.93-.4,1.92-.51,2.9-.52v-1.91c-1.22,0-2.5.17-3.65.75Z"/>
        <path class="cls-5" d="M3.21,66.41s0-.02,0-.03c0,.01,0,.02,0,.03h0ZM3.46,64.01c-.81.41-1.68,1.11-1.72,2.37-.04,1.21,1.38,1.23,1.47.06,0,0,0,0,0,0,0,.03.2-.27.11-.18.28-.28.57-.42.89-.56.93-.4,1.92-.51,2.9-.52v-1.91c-1.22,0-2.5.17-3.65.75Z"/>
        <path class="cls-5" d="M3.21,43.47s0-.02,0-.03c0,.01,0,.02,0,.04h0ZM3.46,41.07c-.81.41-1.68,1.11-1.72,2.36-.04,1.21,1.38,1.23,1.47.06,0,0,0,0,0,0,0,.03.2-.27.11-.18.28-.28.57-.42.89-.56.93-.4,1.92-.51,2.9-.52v-1.91c-1.22,0-2.5.17-3.65.75Z"/>
        <path class="cls-6" d="M11,51.52c0,.22.04-.22,0,0,.05-.22.01-.05-.02.02.11-.24-.2.22-.08.11-.28.28-.57.43-.89.56-.93.4-1.92.51-2.9.52-.98,0-1.96-.14-2.9-.52-.31-.13-.56-.27-.84-.51-.04-.03-.09-.08-.19-.24.11.17.01,0,0-.05.04.13.05.14.02.04.01.15.01.17,0,.06-.04-1.23-1.51-1.23-1.47,0,.04,1.27.91,1.93,1.72,2.36,1.13.6,2.44.75,3.65.75,1.22,0,2.5-.18,3.65-.75.81-.41,1.68-1.11,1.72-2.36.04-1.23-1.43-1.23-1.47,0Z"/>
        <path class="cls-6" d="M11,59.16c0,.22.04-.22,0,0,.05-.22.01-.05-.02.02.11-.24-.2.23-.08.11-.28.28-.57.43-.89.56-.93.4-1.92.51-2.9.52-.98,0-1.96-.14-2.9-.52-.31-.12-.56-.27-.84-.51-.04-.03-.09-.08-.19-.24.11.17.01,0,0-.04.04.13.05.14.02.04.01.15.01.17,0,.06-.04-1.23-1.51-1.23-1.47,0,.04,1.27.91,1.93,1.72,2.36,1.13.61,2.44.75,3.65.75,1.22,0,2.5-.18,3.65-.75.81-.41,1.68-1.11,1.72-2.36.04-1.23-1.43-1.23-1.47,0Z"/>
        <path class="cls-6" d="M11,66.81c0,.22.04-.22,0,0,.05-.22.01-.05-.02.02.11-.24-.2.22-.08.11-.28.28-.57.42-.89.56-.93.4-1.92.51-2.9.52-.98,0-1.96-.14-2.9-.52-.31-.13-.56-.27-.84-.51-.04-.03-.09-.08-.19-.24.11.17.01,0,0-.04.04.13.05.14.02.04.01.15.01.17,0,.07-.04-1.23-1.51-1.23-1.47,0,.04,1.27.91,1.93,1.72,2.36,1.13.6,2.44.74,3.65.75,1.22,0,2.5-.18,3.65-.75.81-.41,1.68-1.11,1.72-2.36.04-1.23-1.43-1.23-1.47,0Z"/>
        <path class="cls-6" d="M11,43.87c0,.22.04-.22,0,0,.05-.22.01-.05-.02.02.11-.24-.2.23-.08.11-.28.28-.57.43-.89.56-.93.4-1.92.51-2.9.52-.98,0-1.96-.14-2.9-.52-.31-.13-.56-.27-.84-.51-.04-.03-.09-.08-.19-.24.11.17.01,0,0-.05.04.13.05.14.02.04.01.15.01.17,0,.06-.04-1.23-1.51-1.23-1.47,0,.04,1.27.91,1.93,1.72,2.36,1.13.61,2.44.75,3.65.75,1.22,0,2.5-.18,3.65-.75.81-.41,1.68-1.11,1.72-2.36.04-1.23-1.43-1.23-1.47,0Z"/>
      </g>
      <g>
        <path class="cls-5" d="M9.8,36.57c0-1.06.83-1.92,1.86-1.92,1.03,0,1.86.86,1.86,1.92,0,1.06-.83,1.92-1.86,1.92-1.03,0-1.86-.86-1.86-1.92Z"/>
        <path class="cls-5" d="M9.8,28.83c0-1.06.83-1.92,1.86-1.92,1.03,0,1.86.86,1.86,1.92,0,1.06-.83,1.92-1.86,1.92-1.03,0-1.86-.86-1.86-1.92Z"/>
        <path class="cls-5" d="M9.8,21.18c0-1.06.83-1.92,1.86-1.92,1.03,0,1.86.86,1.86,1.92s-.83,1.92-1.86,1.92-1.86-.86-1.86-1.92Z"/>
        <path class="cls-5" d="M9.8,13.54c0-1.06.83-1.92,1.86-1.92s1.86.86,1.86,1.92c0,1.06-.83,1.92-1.86,1.92-1.03,0-1.86-.86-1.86-1.92Z"/>
        <path class="cls-5" d="M3.21,20.78s0-.02,0-.03c0,.01,0,.02,0,.04h0ZM3.46,18.39c-.81.41-1.68,1.11-1.72,2.36-.04,1.21,1.38,1.23,1.47.06,0,0,0,0,0,0,0,.03.2-.27.11-.18.28-.28.57-.43.89-.56.93-.4,1.92-.51,2.9-.52v-1.91c-1.22,0-2.5.17-3.65.75Z"/>
        <path class="cls-5" d="M3.21,28.43s0-.02,0-.03c0,.01,0,.02,0,.03h0ZM3.46,26.03c-.81.41-1.68,1.11-1.72,2.36-.04,1.21,1.38,1.23,1.47.06,0,0,0,0,0,0,0,.03.2-.27.11-.18.28-.28.57-.43.89-.56.93-.4,1.92-.51,2.9-.52v-1.91c-1.22,0-2.5.17-3.65.75Z"/>
        <path class="cls-5" d="M3.21,36.08s0-.02,0-.03c0,.01,0,.02,0,.03h0ZM3.46,33.68c-.81.41-1.68,1.11-1.72,2.37-.04,1.21,1.38,1.23,1.47.06,0,0,0,0,0,0,0,.03.2-.27.11-.18.28-.28.57-.42.89-.56.93-.4,1.92-.51,2.9-.52v-1.91c-1.22,0-2.5.17-3.65.75Z"/>
        <path class="cls-5" d="M3.21,13.14s0-.02,0-.03c0,.01,0,.02,0,.04h0ZM3.46,10.74c-.81.41-1.68,1.11-1.72,2.36-.04,1.21,1.38,1.23,1.47.06,0,0,0,0,0,0,0,.03.2-.27.11-.18.28-.28.57-.42.89-.56.93-.4,1.92-.51,2.9-.52v-1.91c-1.22,0-2.5.17-3.65.75Z"/>
        <path class="cls-6" d="M11,21.18c0,.22.04-.22,0,0,.05-.22.01-.05-.02.02.11-.24-.2.22-.08.11-.28.28-.57.43-.89.56-.93.4-1.92.51-2.9.52-.98,0-1.96-.14-2.9-.52-.31-.13-.56-.27-.84-.51-.04-.03-.09-.08-.19-.24.11.17.01,0,0-.05.04.13.05.14.02.04.01.15.01.17,0,.06-.04-1.23-1.51-1.23-1.47,0,.04,1.27.91,1.93,1.72,2.36,1.13.6,2.44.75,3.65.75,1.22,0,2.5-.18,3.65-.75.81-.41,1.68-1.11,1.72-2.36.04-1.23-1.43-1.23-1.47,0Z"/>
        <path class="cls-6" d="M11,28.83c0,.22.04-.22,0,0,.05-.22.01-.05-.02.02.11-.24-.2.23-.08.11-.28.28-.57.43-.89.56-.93.4-1.92.51-2.9.52-.98,0-1.96-.14-2.9-.52-.31-.12-.56-.27-.84-.51-.04-.03-.09-.08-.19-.24.11.17.01,0,0-.04.04.13.05.14.02.04.01.15.01.17,0,.06-.04-1.23-1.51-1.23-1.47,0,.04,1.27.91,1.93,1.72,2.36,1.13.61,2.44.75,3.65.75,1.22,0,2.5-.18,3.65-.75.81-.41,1.68-1.11,1.72-2.36.04-1.23-1.43-1.23-1.47,0Z"/>
        <path class="cls-6" d="M11,36.48c0,.22.04-.22,0,0,.05-.22.01-.05-.02.02.11-.24-.2.22-.08.11-.28.28-.57.42-.89.56-.93.4-1.92.51-2.9.52-.98,0-1.96-.14-2.9-.52-.31-.13-.56-.27-.84-.51-.04-.03-.09-.08-.19-.24.11.17.01,0,0-.04.04.13.05.14.02.04.01.15.01.17,0,.07-.04-1.23-1.51-1.23-1.47,0,.04,1.27.91,1.93,1.72,2.36,1.13.6,2.44.74,3.65.75,1.22,0,2.5-.18,3.65-.75.81-.41,1.68-1.11,1.72-2.36.04-1.23-1.43-1.23-1.47,0Z"/>
        <path class="cls-6" d="M11,13.54c0,.22.04-.22,0,0,.05-.22.01-.05-.02.02.11-.24-.2.23-.08.11-.28.28-.57.43-.89.56-.93.4-1.92.51-2.9.52-.98,0-1.96-.14-2.9-.52-.31-.13-.56-.27-.84-.51-.04-.03-.09-.08-.19-.24.11.17.01,0,0-.05.04.13.05.14.02.04.01.15.01.17,0,.06-.04-1.23-1.51-1.23-1.47,0,.04,1.27.91,1.93,1.72,2.36,1.13.61,2.44.75,3.65.75,1.22,0,2.5-.18,3.65-.75.81-.41,1.68-1.11,1.72-2.36.04-1.23-1.43-1.23-1.47,0Z"/>
      </g>
    </g>
  </g>
</svg>